<?xml version="1.0" encoding="utf-8"?>
<!DOCTYPE svg PUBLIC "-//W3C//DTD SVG 1.0//EN" "http://www.w3.org/TR/2001/REC-SVG-20010904/DTD/svg10.dtd">
<svg version="1.0" xmlns="http://www.w3.org/2000/svg" width="205px" height="238px" viewBox="0 0 205 238" preserveAspectRatio="xMidYMid meet">
 <g fill="#fefef8">
  <path d="M90.8 234.3 c-1 -0.2 -1.8 -0.9 -1.8 -1.4 0 -0.5 -0.9 -0.9 -2 -0.9 -2.4 0 -8.6 -5.3 -10.6 -9.1 -0.7 -1.5 -1.4 -4.2 -1.4 -5.9 0 -2.8 0.3 -3 3.4 -3 2.5 0 3.6 0.5 4.1 1.9 0.9 3 9.9 10.8 13.3 11.6 2.8 0.6 3.2 1 3.2 4.1 0 3.2 -0.2 3.4 -3.2 3.3 -1.8 -0.1 -4.1 -0.3 -5 -0.6z"/>
  <path d="M105 231.5 c0 -3.3 0.2 -3.5 3.5 -3.5 3.3 0 3.5 0.2 3.5 3.5 0 3.3 -0.2 3.5 -3.5 3.5 -3.3 0 -3.5 -0.2 -3.5 -3.5z"/>
  <path d="M127 168.5 l0 -20.5 3.5 0 3.5 0 0 20.5 0 20.5 -3.5 0 -3.5 0 0 -20.5z"/>
  <path d="M88 150.4 l0 -17.5 4.2 0.3 c3.7 0.3 4.3 0.7 5 3.3 0.5 1.7 0.6 6.8 0.2 11.5 -0.4 4.7 -0.6 11.1 -0.5 14.3 l0.2 5.7 -4.5 0 -4.6 0 0 -17.6z"/>
  <path d="M71 155.5 c0 -4.5 0 -4.5 3.5 -4.5 3.5 0 3.5 0 3.5 4.5 0 4.5 0 4.5 -3.5 4.5 -3.5 0 -3.5 0 -3.5 -4.5z"/>
  <path d="M72 148 c0 -1.3 -0.7 -2 -2 -2 -5.6 0 -17.2 -9.2 -24.4 -19.4 -9.7 -13.6 -12.2 -20.8 -13.3 -38 l-0.6 -10.6 3.5 0 3.5 0 0.6 7.8 c0.7 10 3.8 19.9 9 28.7 4.5 7.7 16.2 19.9 22 23 2.1 1.1 3.7 2.7 3.7 3.7 0 1.3 0.8 1.8 2.5 1.8 2.2 0 2.5 0.4 2.5 3.5 0 3.3 -0.2 3.5 -3.5 3.5 -2.8 0 -3.5 -0.4 -3.5 -2z"/>
  <path d="M134 140.5 c0 -2.5 0.4 -3.5 1.6 -3.5 0.9 0 3 -1.6 4.7 -3.5 1.7 -1.9 3.5 -3.5 4.1 -3.5 1.3 -0.1 7.8 -8.2 12.3 -15.4 2.9 -4.6 7.2 -16.3 8.8 -23.8 0.5 -2.4 1 -2.8 4 -2.8 3.4 0 3.5 0.1 3.5 3.7 0 6 -2.2 16.5 -4.1 20.1 -1.1 1.8 -1.9 3.7 -1.9 4.2 0 0.5 -1.8 3.3 -4 6.2 -2.2 2.9 -4 5.8 -4 6.4 0 1.4 -6 6.4 -7.7 6.4 -0.7 0 -1.3 0.4 -1.3 1 0 0.5 -1.6 2.5 -3.5 4.5 -3 3 -4.3 3.5 -8 3.5 -4.5 0 -4.5 0 -4.5 -3.5z"/>
  <path d="M49 84.9 c0 -18.4 3.9 -29 14.4 -39.4 11 -10.8 20.9 -14.5 39.2 -14.5 6.2 0 11.9 0.3 12.8 0.6 1 0.4 1.6 1.8 1.6 3.9 l0 3.2 -10.2 0.6 c-11.4 0.6 -16 2.1 -25.6 8.4 -6.5 4.3 -6.6 4.4 -10.8 9.8 -6.5 8.3 -11.3 20.5 -13.8 34.8 -0.6 3.4 -0.9 3.7 -4.1 3.7 l-3.5 0 0 -11.1z"/>
  <path d="M156 51.2 c0 -0.9 -0.9 -2.3 -2 -3 -1.3 -0.8 -2 -2.3 -2 -4.2 0 -2.4 -0.4 -3 -2.1 -3 -1.2 0 -2.9 -0.8 -3.8 -1.8 -0.9 -1 -3.1 -2.8 -4.8 -4.1 -2.6 -1.8 -3.3 -2.9 -3.3 -5.7 0 -3.2 0.2 -3.4 3.4 -3.4 2.7 0 4.4 0.9 8 4.4 2.6 2.5 4.6 5.3 4.6 6.5 0 1.5 0.6 2.1 2.1 2.1 2.4 0 4.8 2.6 4.9 5.3 0 0.9 0.5 1.7 1 1.7 0.6 0 1 1.6 1 3.5 0 3.3 -0.2 3.5 -3.5 3.5 -2.7 0 -3.5 -0.4 -3.5 -1.8z"/>
 </g>
 <g fill="#de8949">
  <path d="M96.2 140.7 c-0.7 -1.8 -1.2 -4 -1.2 -4.9 0 -1.4 -1.9 -2.8 -4 -2.8 -0.4 0 -0.6 0.9 -0.3 1.9 0.4 1.8 0.1 1.9 -3.5 1 -10.5 -2.3 -21.7 -9.6 -28.3 -18.4 -3 -4 -3.8 -6.1 -4.3 -11 l-0.6 -6 2 4.3 c2.3 5 3.2 5.5 1.9 1 -1.2 -4.4 -1.1 -20.1 0.2 -27.3 3.7 -20.3 17.8 -34.4 39.9 -40.1 8 -2 18.4 -0.9 30.7 3.2 3.7 1.3 -3 -2.9 -7.6 -4.7 -6.4 -2.5 -4.1 -2.3 6.3 0.5 4.9 1.4 9.3 3.1 9.7 3.8 0.5 0.7 0.9 2.8 0.9 4.6 0 2.9 -0.3 3.2 -2.8 3.2 -1.6 0 -5.6 -1.1 -9 -2.5 -7.7 -3.1 -8.5 -3.1 -4.1 0 4.8 3.5 8.9 9.4 8.9 12.6 0 1.8 -1.2 3.9 -3.7 6.4 -3.4 3.4 -4.1 3.7 -7.8 3.1 -5.2 -0.7 -7.9 1.1 -9.6 6.2 -0.6 2 -2.3 4.7 -3.5 5.9 -1.3 1.2 -2.4 2.9 -2.4 3.8 0 1.1 -1 1.5 -3.5 1.5 -3.1 0 -3.5 0.3 -3.5 2.5 0 2.3 -0.3 2.5 -4.9 2.5 -3 0 -5.1 -0.5 -5.4 -1.2 -0.3 -0.8 -0.6 -0.6 -0.6 0.5 -0.1 1.2 0.7 1.7 2.9 1.7 2.6 0 3 0.3 3 2.9 0 3.9 -0.9 6.1 -2.6 6.1 -0.8 0 -1.4 0.9 -1.4 2 0 1.1 -0.4 2 -1 2 -0.5 0 -1 1.1 -1 2.4 0 1.3 -0.3 3.8 -0.6 5.5 -0.6 3 -0.8 3.1 -6 3.1 -3 0 -5.4 -0.4 -5.4 -1 0 -0.5 -0.8 -1 -1.7 -1 -1.3 0.1 -0.2 1.6 3.4 4.9 4.9 4.6 7.1 5.7 21.6 11 2.6 1 2.7 1.4 2.7 7.6 0 7.3 -1.8 8.8 -3.8 3.2z m-2.6 -65.3 c-0.3 -0.9 -0.6 -2 -0.6 -2.5 0 -1.7 -1.7 -0.1 -2.3 2.1 -0.4 1.5 0 2 1.5 2 1.4 0 1.8 -0.5 1.4 -1.6z"/>
 </g>
 <g fill="#db7a39">
  <path d="M96.8 139.3 c-0.7 -3.8 -0.2 -6.3 1.4 -6.3 1.4 0 1.8 0.8 1.8 3.5 0 2.4 -0.5 3.5 -1.5 3.5 -0.8 0 -1.6 -0.3 -1.7 -0.7z"/>
  <path d="M81.3 132.3 c-3.5 -1.4 -8.5 -4.5 -11.3 -7 -7.7 -6.9 -8.1 -9.2 -0.4 -2.9 4.1 3.4 9.4 6.6 13.6 8.3 3.8 1.4 7.1 3 7.4 3.5 0.9 1.4 -2.9 0.7 -9.3 -1.9z"/>
  <path d="M85.7 129.8 c-9.5 -3.7 -18.1 -11 -19.8 -16.9 -1.4 -4.5 -0.6 -6.1 1.7 -3.3 0.8 1 1.3 1.4 1 0.8 -0.3 -0.7 0.1 -1.5 1 -1.8 0.8 -0.3 1.2 -0.2 0.9 0.4 -0.3 0.6 -0.3 1 0.2 1.1 0.4 0 2.5 0.2 4.5 0.4 3.5 0.4 3.7 0.2 5.4 -4 0.9 -2.4 2.4 -4.6 3.3 -4.8 0.9 -0.3 0.4 -0.5 -1.1 -0.6 -1.5 0 -2.9 -0.5 -3.2 -0.9 -0.3 -0.5 1.9 -8.2 4.7 -17.3 4.9 -15.1 5.5 -16.4 7.8 -16.7 2.3 -0.3 2.7 0.3 5.3 8.4 l2.8 8.7 1.3 -3 c0.7 -1.6 1.9 -3.2 2.7 -3.5 0.8 -0.3 2 -2.4 2.7 -4.7 1.5 -5.3 4.7 -7.4 10.5 -7 2.4 0.2 4.3 0.2 4 0 -0.2 -0.2 1.2 -1.6 3.1 -3.1 l3.4 -2.7 -2.7 -3.6 c-5.3 -7 -12.3 -10.8 -23.4 -12.7 -3.8 -0.7 -6.6 -1.5 -6.3 -2 0.2 -0.4 3 -1.3 6.2 -1.9 7.1 -1.5 15.2 -0.3 26 3.8 7.8 3.1 8.9 2 1.8 -1.8 -6.6 -3.5 -4.8 -3.7 3.2 -0.4 6.5 2.7 6.8 3 7.1 6.6 0.3 3.6 0.2 3.7 -3 3.7 -1.9 0 -4.2 -0.6 -5.3 -1.3 -1.1 -0.7 -3.3 -1.9 -5 -2.6 -2.7 -1.1 -2.6 -0.9 1.7 3.7 13.2 14.1 16.6 36.2 8 52.7 -3.1 6 -9.9 12 -17.7 15.7 -6.7 3.2 -7.5 3.3 -19.3 3.3 -13.2 0 -15.4 1 -8.7 4.2 2.5 1.2 3.5 2.3 3.5 4 0 1.3 -0.1 2.3 -0.2 2.2 -0.2 0 -3.8 -1.4 -8.1 -3.1z m-3.4 -19.5 c0.5 -2.8 0.5 -2.8 -1.2 -0.7 -0.9 1.1 -2.3 2.3 -3.1 2.7 -0.9 0.3 -0.4 0.6 1.1 0.6 2.1 0.1 2.8 -0.5 3.2 -2.6z m11.6 -24 c-0.2 -3.2 -1.5 -6.8 -2.1 -5.8 -0.3 0.6 -0.9 2.5 -1.3 4.3 -0.6 2.8 -0.4 3.2 1.4 3.2 1.4 0 2.1 -0.6 2 -1.7z"/>
 </g>
 <g fill="#768788">
  <path d="M91.5 229.6 c-6.2 -2.9 -10.7 -7.6 -13.7 -14.1 -2.2 -4.8 -2.3 -6 -2.6 -37 -0.1 -17.6 -0.2 -32.4 -0.2 -33 0 -0.5 -2.6 -2.3 -5.8 -4 -7.4 -3.9 -18.8 -15.2 -23.9 -24 -12.9 -21.9 -12 -48.9 2.4 -70.7 9.9 -15.1 27.4 -26.2 44.7 -28.3 5.3 -0.7 5.6 -0.6 5.6 1.4 0 1.5 -0.6 2.1 -2.3 2.1 -5.9 0 -18.9 5 -28.5 11.1 -2.9 1.8 -14.2 12.9 -14.2 14 0 0.4 -0.6 1.2 -1.2 1.6 -1.6 1 -7.5 12.9 -9.4 19.1 -2.4 7.6 -2.9 20.7 -1 28.5 1.7 7.1 6.2 17.1 10.2 22.4 1.3 1.7 2.4 3.4 2.4 3.6 0 0.2 2.4 2.8 5.4 5.8 5.7 5.7 8.4 7.6 15.3 11.1 l4.2 2.2 0.3 33.5 0.3 33.6 2.8 5.6 c1.5 3.1 2.7 6.3 2.7 7.2 0 1 0.7 1.7 1.7 1.7 0.9 0 4 1.2 7 2.6 4.1 2 6.3 2.5 9.6 2.2 8.7 -1 16.3 -6.6 20.1 -14.8 2 -4.2 2.1 -6.7 2.6 -38.4 0.4 -27.2 0.8 -34 1.8 -34.4 0.8 -0.2 4.3 -2.4 7.9 -4.8 3.6 -2.4 6.7 -4.4 6.8 -4.4 0.5 0 8.5 -8.2 8.5 -8.7 0 -0.2 1.1 -1.9 2.4 -3.6 3.8 -5 8.3 -14.8 10.1 -21.8 2 -7.4 1.5 -21.3 -0.9 -29 -1.4 -4.5 -5.9 -13.8 -9.3 -19.2 -2.3 -3.7 -12.3 -13.7 -16 -16 -9.5 -6 -21.6 -10.7 -27.5 -10.7 -2.1 0 -2.8 -0.5 -2.8 -2 0 -1.5 0.7 -2 2.8 -2 5.5 0 15.7 3.2 23.6 7.2 28.1 14.6 42.2 49.4 32.1 79.3 -5.1 15.3 -15.4 28 -28.7 35.8 l-6.6 3.9 -0.4 33.1 c-0.3 32.4 -0.4 33.3 -2.7 38.5 -6.1 13.4 -22.7 19.9 -35.6 13.8z"/>
  <path d="M89.6 212.8 c-1.3 -1.8 -1.6 -5.6 -1.7 -19.8 0 -9.6 -0.4 -27.2 -0.8 -39 -0.4 -11.8 -0.7 -21.6 -0.5 -21.8 0.1 -0.2 1.2 0.1 2.3 0.7 1.9 1.1 2.1 2.2 2.3 16.9 0.3 13.2 0.5 15.7 1.8 15.7 1.7 0 2.7 -5.9 3.2 -19.2 0.3 -9 0.8 -9.6 6.3 -7.1 2.6 1.2 2.6 1.4 2.2 8.7 -0.3 4.2 -2.1 18.4 -4.1 31.6 -2.5 16.9 -3.3 25.7 -2.9 29.8 l0.6 5.7 -3.6 0 c-2.6 0 -4 -0.6 -5.1 -2.2z"/>
  <path d="M91 131.5 c-2.4 -1.4 -2.4 -1.4 -0.3 -1.5 1.2 0 2.5 0.5 2.8 1.1 1.1 1.7 0.2 1.8 -2.5 0.4z"/>
  <path d="M59 117 c0 -1.1 -0.7 -2 -1.5 -2 -0.8 0 -1.5 -0.6 -1.5 -1.4 0 -0.8 -0.5 -1.6 -1 -1.8 -2.4 -0.8 -6.1 -14.2 -6.7 -23.8 -2 -33.1 17.9 -56.1 49.8 -57.8 12.4 -0.6 21.6 1 30.7 5.5 7 3.4 7.2 3.6 7.2 7.2 -0.1 3 -0.3 3.3 -1.3 2 -2.1 -2.6 -12 -7.8 -18.2 -9.4 -12.3 -3.2 -28.3 -1.4 -38.9 4.3 -6.7 3.6 -16.7 13.5 -19.9 19.8 -8.7 17.2 -7.4 38.4 3.3 53.7 l4.1 5.7 -3.1 0 c-2.3 0 -3 -0.4 -3 -2z"/>
  <path d="M126.8 44.4 c-4.2 -2.2 -3.4 -2.6 1.5 -0.7 5.1 2 5.6 2.3 3.1 2.3 -1 -0.1 -3.1 -0.8 -4.6 -1.6z"/>
 </g>
 <g fill="#6f8082">
  <path d="M111 227.5 c0 -2.2 0.4 -2.5 3.5 -2.5 3.1 0 3.5 -0.3 3.5 -2.5 0 -2.1 0.5 -2.5 3 -2.5 2.6 0 2.9 0.2 1.9 1.8 -1.2 1.9 -7.4 6.5 -10.1 7.5 -1.4 0.5 -1.8 0.1 -1.8 -1.8z"/>
  <path d="M82.8 223 l-2.8 -3.5 2.6 -0.3 c3.3 -0.4 3.6 -0.1 3.2 3.9 l-0.3 3.4 -2.7 -3.5z"/>
  <path d="M92.2 216.4 c-1.9 -1.3 -2.2 -2.3 -2.1 -8.7 0.1 -6.4 0.2 -6.7 0.8 -2.9 0.4 2.3 1.5 5 2.5 6 1.6 1.6 1.7 1.6 0.7 -1.1 -0.8 -2 -0.6 -6 0.8 -15.5 1.1 -7 1.9 -13.4 1.9 -14.2 0 -0.8 0.5 -4.2 1.1 -7.5 0.5 -3.3 1.2 -8.5 1.5 -11.7 0.2 -3.1 0.9 -6.5 1.5 -7.6 0.6 -1.2 1.1 -3.9 1.1 -6.1 0 -3.1 -0.4 -4.1 -2 -4.6 -1.1 -0.3 -2.5 -1.5 -3 -2.6 -0.9 -1.6 -0.7 -1.9 1.3 -1.9 1.3 0 3.9 0.5 5.7 1.1 l3.3 1.2 -0.6 10.6 c-0.4 5.8 -1.1 14.2 -1.8 18.6 -0.6 4.4 -1 10.9 -1 14.5 0.1 8.3 -1.5 29.9 -2.4 32.3 -0.9 2.2 -6.2 2.3 -9.3 0.1z"/>
  <path d="M87 166.5 c0 -4 2.4 -4.9 3.4 -1.2 1 3.7 0.7 4.7 -1.4 4.7 -1.6 0 -2 -0.7 -2 -3.5z"/>
  <path d="M84 133.5 c0 -1.9 0.4 -2.3 1.8 -1.8 4.8 1.7 5.5 4.3 1.2 4.3 -2.5 0 -3 -0.4 -3 -2.5z"/>
  <path d="M88 130 c-1.2 -0.8 -1.1 -1 0.8 -1 1.2 0 2.2 0.5 2.2 1 0 1.3 -1.1 1.3 -3 0z"/>
  <path d="M58 114.4 c0 -3.9 0.9 -3.8 4 0.6 l2.1 3 -3 0 c-2.9 0 -3.1 -0.3 -3.1 -3.6z"/>
  <path d="M41.6 109.1 c-0.3 -0.4 -1 -2 -1.5 -3.5 -1 -2.4 -0.8 -2.6 1.4 -2.6 2.2 0 2.5 0.4 2.5 3.5 0 3.3 -1.2 4.6 -2.4 2.6z"/>
  <path d="M161 107.3 c0 -4.8 1.1 -7.3 3.1 -7.3 2.3 0 2.4 1.9 0.5 6.5 -1.8 4.2 -3.6 4.6 -3.6 0.8z"/>
  <path d="M51 102.5 c0 -2.2 0.5 -3.5 1.3 -3.5 0.8 0 1.8 1.6 2.4 3.5 1.1 3.3 1 3.5 -1.3 3.5 -2.1 0 -2.4 -0.5 -2.4 -3.5z"/>
  <path d="M48 89.5 c0 -4 2.4 -4.9 3.4 -1.2 1 3.7 0.7 4.7 -1.4 4.7 -1.6 0 -2 -0.7 -2 -3.5z"/>
  <path d="M48 77.5 c0 -2.8 0.4 -3.5 2 -3.5 2.1 0 2.4 1 1.4 4.8 -1 3.6 -3.4 2.7 -3.4 -1.3z"/>
  <path d="M40 63.5 c0 -2.1 5.1 -12.5 6.1 -12.5 0.5 0 0.9 1.6 0.9 3.5 0 2.4 -0.5 3.5 -1.5 3.5 -1 0 -1.5 1.1 -1.5 3.5 0 2.8 -0.4 3.5 -2 3.5 -1.1 0 -2 -0.7 -2 -1.5z"/>
  <path d="M161 61.5 c0 -3.9 1.4 -4.6 3 -1.6 1.6 3.1 1.2 5.1 -1 5.1 -1.6 0 -2 -0.7 -2 -3.5z"/>
  <path d="M70 41 c0 -2.8 0.3 -3 3.5 -3 4.4 0 4.4 0.9 0 3.8 l-3.5 2.2 0 -3z"/>
  <path d="M128.8 40.2 c-3.7 -2.2 -3.5 -3.2 0.7 -3.2 3.1 0 3.5 0.3 3.5 2.5 0 2.9 -0.6 3 -4.2 0.7z"/>
  <path d="M86 33 c0 -1.6 0.7 -2 3.5 -2 4 0 4.9 2.4 1.3 3.4 -3.8 1 -4.8 0.7 -4.8 -1.4z"/>
  <path d="M107.8 33.3 c-3.3 -0.8 -2 -3.3 1.7 -3.3 2.8 0 3.5 0.4 3.5 2 0 2 -1.4 2.3 -5.2 1.3z"/>
  <path d="M75 25 c0 -1.2 3.3 -3 5.4 -3 0.9 0 1.6 0.9 1.6 2 0 1.6 -0.7 2 -3.5 2 -1.9 0 -3.5 -0.4 -3.5 -1z"/>
  <path d="M113 21 c0 -2.1 1 -2.4 4.8 -1.4 3.6 1 2.7 3.4 -1.3 3.4 -2.8 0 -3.5 -0.4 -3.5 -2z"/>
  <path d="M92 20.6 c0 -1.3 2.8 -2.6 5.8 -2.6 0.6 0 1.2 0.9 1.2 2 0 1.6 -0.7 2 -3.5 2 -2.3 0 -3.5 -0.5 -3.5 -1.4z"/>
 </g>
 <g fill="#67797c">
  <path d="M95.3 230.6 c-9.2 -2.9 -15.1 -8.8 -17.9 -18.2 -1.9 -6.3 -1.8 -7.4 0.6 -7.4 1.6 0 2 0.7 2 3.1 0 1.7 0.7 3.7 1.5 4.6 0.9 0.8 1.8 2.7 2.1 4.2 0.3 1.5 1.5 3.1 2.7 3.6 1.2 0.6 2.3 2 2.5 3.1 0.4 2.6 6 3.8 16.5 3.5 5.1 -0.1 6.7 0.2 6.7 1.3 0 0.8 -1.8 1.8 -4.4 2.5 -5.5 1.4 -7 1.3 -12.3 -0.3z"/>
  <path d="M114 225.5 c0 -2.2 0.4 -2.5 3.4 -2.5 3.2 0 3.4 -0.3 3.9 -3.7 1 -7.1 4 -14.3 6.1 -14.3 1.6 0 1.7 0.5 1.1 3.8 -1.1 6.2 -4 11.5 -8.3 15.5 -4.9 4.3 -6.2 4.6 -6.2 1.2z"/>
  <path d="M91 216 c-3.6 -3.9 -4 -6.7 -4 -31.2 0 -17.1 0.2 -20.8 1.4 -20.8 2.2 0 2.6 3.4 2.6 23.8 0 20.4 0.7 23.9 4.9 26.2 3 1.5 3 1.3 4.5 -24.5 0.1 -2.2 -0.2 -5 -0.7 -6.2 -0.7 -1.5 -0.6 -3.2 0.1 -5 1.2 -2.8 2.7 -14.2 3.9 -27.9 l0.6 -7.2 -3.6 -1.1 c-3.9 -1.3 -5.8 -4.1 -2.8 -4.1 1 0 3.9 0.3 6.5 0.6 l4.6 0.7 0 5.6 c0 3.1 -0.5 9.5 -1.1 14.1 -0.5 4.7 -1.4 19.1 -1.9 32 -0.5 12.9 -1.2 24.5 -1.5 25.8 -0.6 1.9 -1.4 2.2 -5.7 2.2 -4.2 0 -5.4 -0.4 -7.8 -3z"/>
  <path d="M126 144.9 c0 -3.4 2.8 -6.6 6.7 -7.5 1.3 -0.4 2.3 -1 2.3 -1.5 0 -0.5 0.7 -0.9 1.5 -0.9 0.8 0 1.5 -0.4 1.5 -1 0 -0.5 0.8 -1 1.9 -1 1 0 2.1 -0.9 2.4 -2 0.3 -1.3 1.4 -2 3 -2 2.1 0 2.6 -0.6 2.9 -2.7 0.2 -1.7 1.2 -3.2 2.6 -3.8 1.2 -0.5 2.2 -1.8 2.2 -2.7 0 -1 0.5 -1.8 1 -1.8 0.6 0 1 -0.7 1 -1.5 0 -0.9 0.9 -1.5 2.5 -1.5 1.4 0 2.5 0.4 2.5 0.9 0 1.8 -8.9 12.8 -13.6 16.9 -2.7 2.3 -7.5 5.6 -10.6 7.4 -3.6 2 -6 4.2 -6.4 5.6 -0.9 3.4 -3.4 2.8 -3.4 -0.9z"/>
  <path d="M76 145.8 c0 -0.7 -2.5 -2.6 -5.4 -4.1 -3 -1.6 -7.2 -4.4 -9.3 -6.2 l-3.8 -3.4 3.8 -0.1 c2.4 0 4 0.5 4.3 1.5 0.4 0.8 1.2 1.5 2 1.5 0.8 0 1.4 0.4 1.4 0.9 0 0.5 1.1 1.2 2.5 1.5 1.4 0.4 2.5 1.1 2.5 1.6 0 0.6 0.9 1 2 1 1.6 0 2 0.7 2 3.5 0 1.9 -0.4 3.5 -1 3.5 -0.5 0 -1 -0.6 -1 -1.2z"/>
  <path d="M81.8 135.3 c-1.9 -0.5 -2.6 -5.3 -0.8 -5.3 1.9 0 9 4 9 5 0 1 -4.9 1.2 -8.2 0.3z"/>
  <path d="M72 130 c0 -0.5 -0.7 -1 -1.5 -1 -1 0 -1.5 -1 -1.5 -2.9 0 -2.7 -0.3 -3 -3.7 -3.3 -3.3 -0.3 -3.8 -0.7 -4.1 -3 -0.2 -2 -0.9 -2.8 -2.3 -2.8 -1 0 -1.9 -0.7 -1.9 -1.5 0 -0.8 -0.4 -1.5 -1 -1.5 -0.5 0 -1 -0.7 -1 -1.5 0 -0.8 -0.4 -1.5 -1 -1.5 -0.5 0 -1 -1.6 -1 -3.5 0 -1.9 0.4 -3.5 0.9 -3.5 0.4 0 2.5 2.7 4.5 5.9 3.7 6 9.9 12.2 16.9 16.9 4.6 3.1 4.7 4.2 0.2 4.2 -1.9 0 -3.5 -0.4 -3.5 -1z"/>
  <path d="M87 129.4 l-2.5 -1.5 2.5 0.7 c2.8 0.7 3.5 1.2 2.9 1.8 -0.2 0.2 -1.5 -0.2 -2.9 -1z"/>
  <path d="M51.2 125.3 c-3.4 -4.3 -7.2 -10.4 -7.2 -11.5 0 -0.5 1.1 -0.8 2.5 -0.8 1.8 0 2.6 0.7 3.1 2.5 0.3 1.4 1 2.5 1.5 2.5 0.5 0 0.9 0.9 0.9 2 0 1.1 0.7 2 1.5 2 1 0 1.5 1.1 1.5 3.5 0 1.9 -0.2 3.5 -0.4 3.5 -0.2 0 -1.8 -1.7 -3.4 -3.7z"/>
  <path d="M41.1 107.7 c-1.8 -4.1 -4.1 -13.3 -4.1 -16.2 0 -0.8 0.8 -1.5 1.8 -1.5 1.5 0 2.1 1.4 3.1 7.5 0.8 4.1 1.8 7.5 2.2 7.5 0.5 0 0.9 1.6 0.9 3.5 0 4.7 -1.7 4.4 -3.9 -0.8z"/>
  <path d="M49.1 98 c-1.5 -7.2 -1.4 -11 0.4 -11 0.9 0 1.6 1.4 2 3.8 0.4 2 1.1 5 1.6 6.6 1.3 4.3 1.1 5.6 -1 5.6 -1.5 0 -2.2 -1.1 -3 -5z"/>
  <path d="M163 100.8 c0 -5.9 1.3 -9.8 3.1 -9.8 2.2 0 2.3 1.4 0.8 7.6 -1.2 4.6 -3.9 6.2 -3.9 2.2z"/>
  <path d="M48 77.4 c0 -3.1 2.5 -13.2 4.7 -18.5 1 -2.6 2.1 -3.9 3.4 -3.9 1.4 0 1.9 -0.7 1.9 -3 0 -2.7 0.3 -3 3.1 -3 l3.1 0 -2.6 3.5 c-3.7 4.8 -7.1 12.7 -9.2 20.8 -1 4.2 -2.2 6.7 -3 6.7 -0.8 0 -1.4 -1.1 -1.4 -2.6z"/>
  <path d="M37.5 74.3 c1.1 -7.7 1.6 -9.3 3.2 -9.3 1.3 0 1.5 0.9 0.9 5.3 -0.3 2.8 -0.6 6 -0.6 7 0 1.1 -0.8 1.7 -2.1 1.7 -2 0 -2.1 -0.4 -1.4 -4.7z"/>
  <path d="M163.5 73.8 c-0.3 -2.4 -0.9 -5.8 -1.2 -7.5 -0.3 -1.8 -0.9 -3.3 -1.4 -3.3 -0.5 0 -0.9 -1.6 -0.9 -3.6 0 -2.4 0.4 -3.4 1.3 -3.2 1.5 0.6 5.2 10.7 6.1 17.1 0.7 4.2 0.5 4.7 -1.2 4.7 -1.5 0 -2.1 -1 -2.7 -4.2z"/>
  <path d="M41.3 59.8 c1.9 -4.6 3.7 -4.8 3.7 -0.4 0 3.2 -0.3 3.6 -2.5 3.6 -2.4 0 -2.5 -0.1 -1.2 -3.2z"/>
  <path d="M155 51.5 c0 -0.8 -0.4 -1.5 -1 -1.5 -0.5 0 -1 -0.7 -1 -1.5 0 -0.8 -0.4 -1.5 -1 -1.5 -0.5 0 -1 -1.6 -1 -3.6 0 -3.1 0.2 -3.5 1.4 -2.4 1.6 1.3 7.6 10.3 7.6 11.3 0 0.4 -1.1 0.7 -2.5 0.7 -1.6 0 -2.5 -0.6 -2.5 -1.5z"/>
  <path d="M46 50.1 c0 -0.9 6.8 -10.1 7.5 -10.1 0.3 0 0.5 1.6 0.5 3.5 0 2.4 -0.5 3.5 -1.5 3.5 -0.8 0 -1.5 0.9 -1.5 2 0 1.5 -0.7 2 -2.5 2 -1.4 0 -2.5 -0.4 -2.5 -0.9z"/>
  <path d="M132.7 48.3 c-0.4 -0.3 -0.7 -1.2 -0.7 -2 0 -1 0.6 -0.9 2.7 0.4 l2.7 1.8 -2.4 -3.3 c-3 -4 -13.9 -9.5 -22.2 -11.2 -4.1 -0.8 -5.8 -1.6 -5.8 -2.7 0 -1.3 0.9 -1.5 5.8 -0.9 3.1 0.4 5.9 1.1 6 1.6 0.2 0.6 1.3 1 2.5 1 4.2 0 6.7 1.2 6.7 3.1 0 1.5 0.7 1.9 3.5 1.9 2.4 0 3.5 0.5 3.5 1.4 0 0.8 1 1.6 2.3 1.8 1.8 0.2 2.3 1 2.5 4.1 0.3 3.6 0.2 3.7 -3.1 3.7 -1.8 0 -3.7 -0.3 -4 -0.7z"/>
  <path d="M67 43 c0 -2.7 0.3 -3 3 -3 2.3 0 3 -0.4 3 -2 0 -1.3 0.7 -2 2 -2 1.1 0 2 -0.4 2 -1 0 -0.5 1.1 -1 2.5 -1 1.4 0 2.5 -0.4 2.5 -1 0 -0.5 1.6 -1 3.5 -1 5.2 0 4.3 2.2 -1.7 4.4 -2.9 1 -7.9 3.6 -11 5.7 l-5.8 3.9 0 -3z"/>
  <path d="M62 31.9 c1.9 -1.6 6.7 -4.6 10.5 -6.5 6.9 -3.5 7 -3.5 7.3 -1.3 0.4 2.6 -1.2 3.9 -5 3.9 -1.8 0 -2.8 0.5 -2.8 1.5 0 0.8 -0.7 1.5 -1.5 1.5 -0.8 0 -1.5 0.5 -1.5 1 0 0.6 -0.7 1 -1.5 1 -0.8 0 -1.5 0.5 -1.5 1 0 0.6 -1.7 1 -3.7 1 l-3.8 -0.1 3.5 -3z"/>
  <path d="M139 34 c0 -0.5 -0.7 -1 -1.5 -1 -0.8 0 -1.5 -0.4 -1.5 -1 0 -0.5 -0.7 -1 -1.5 -1 -0.9 0 -1.5 -0.9 -1.5 -2.5 0 -1.4 0.3 -2.5 0.7 -2.5 1 0 10 6 11.3 7.6 1.1 1.2 0.7 1.4 -2.4 1.4 -2 0 -3.6 -0.4 -3.6 -1z"/>
  <path d="M90 32 c0 -1.7 0.7 -2 4 -2 4.5 0 5.7 2.3 1.8 3.4 -4.2 1.1 -5.8 0.7 -5.8 -1.4z"/>
  <path d="M119.5 24.4 c-2.2 -0.8 -6.6 -1.7 -9.7 -2.1 -4.8 -0.5 -5.8 -0.9 -5.8 -2.4 0 -2.3 1.4 -2.4 11.3 -0.5 8.4 1.6 14.7 4 14.7 5.5 0 1.5 -5.8 1.2 -10.5 -0.5z"/>
  <path d="M82 22.7 c0 -1.6 5 -3.1 14.3 -4.2 5.2 -0.7 5.7 -0.6 5.7 1.2 0 1.7 -0.9 2.1 -5.2 2.7 -2.9 0.3 -7.4 0.9 -10 1.2 -3.9 0.5 -4.8 0.4 -4.8 -0.9z"/>
 </g>
 <g fill="#be6029">
  <path d="M98.8 141.2 c-1.8 -0.3 -2 -0.8 -2.2 -4.9 -0.1 -1.6 -1.7 -3 -6.5 -5.5 -5.7 -2.9 -6.5 -3.7 -6.6 -6.3 -0.1 -1.6 -0.5 -3.8 -1 -4.9 -0.7 -1.7 -0.5 -1.8 4.6 -1 3 0.5 9 0.9 13.4 0.9 7 0 8.9 -0.4 15 -3.3 11.7 -5.5 18.6 -13.9 21.5 -25.9 0.8 -3.6 1.7 -5.3 2.7 -5.3 2.5 0 1.1 10.9 -2.3 17.6 -7.1 13.9 -22.6 22 -40.9 21.2 -4.1 -0.2 -7.5 0 -7.5 0.3 0 1.4 5.1 4.8 7.7 5.1 2.6 0.3 2.8 0.7 3.6 5.7 0.9 6.4 0.8 6.8 -1.5 6.3z"/>
  <path d="M79 131.6 c0 -1.9 0.4 -2.3 2 -1.9 1.1 0.3 2 0.9 2 1.4 0 0.5 0.3 0.8 0.8 0.7 0.4 0 1.8 0.4 3.2 1 2.2 1 1.9 1.1 -2.7 1.1 -4.9 0.1 -5.3 -0.1 -5.3 -2.3z"/>
  <path d="M71 128.5 c0 -0.8 -0.9 -1.5 -2 -1.5 -2.3 0 -3.3 -1.8 -2.8 -5.1 0.3 -2.1 0.4 -2.1 3.7 1 1.8 1.7 3.7 3.1 4.2 3.1 0.5 0 0.9 0.5 0.9 1 0 0.6 0.7 1 1.5 1 0.8 0 1.5 0.5 1.5 1 0 0.6 -1.6 1 -3.5 1 -2.4 0 -3.5 -0.5 -3.5 -1.5z"/>
  <path d="M80 99.2 c0 -0.5 0.7 -2.8 1.4 -5.3 0.8 -2.4 3.1 -9.7 5.1 -16.2 3.2 -10.4 3.9 -11.8 5.7 -11.5 1.7 0.2 2.9 3.1 7.3 17.1 l5.2 16.7 -3.2 0 c-2.7 0 -3.4 -0.5 -3.9 -2.5 -0.6 -2.2 -1.1 -2.5 -5.6 -2.5 -4.5 0 -5 0.3 -5.6 2.5 -0.5 1.9 -1.3 2.5 -3.5 2.5 -1.6 0 -2.9 -0.4 -2.9 -0.8z m15 -10.9 c-0.1 -2.7 -2.8 -10.5 -3.3 -9.3 -1.3 3.7 -2.7 8.4 -2.7 9.1 0 0.5 1.4 0.9 3 0.9 1.7 0 3 -0.3 3 -0.7z"/>
  <path d="M107 97.2 c0 -1.7 2 -5.7 5.4 -10.5 6.3 -9.1 7.4 -12.3 5.1 -14.6 -1.5 -1.5 -1.8 -1.4 -3.9 1.2 -2.9 3.6 -6.6 3.7 -6.6 0.2 0 -7.1 11.5 -10.4 16 -4.7 3.2 4 2.3 9.6 -2.9 17.5 -2.2 3.5 -4.1 6.6 -4.1 7 0 0.4 2 0.7 4.5 0.7 4.3 0 4.5 0.1 4.5 3 l0 3 -9 0 -9 0 0 -2.8z"/>
  <path d="M138 82.7 c0 -0.2 -0.5 -3 -1.1 -6.2 -2 -11.1 -9.2 -22.2 -18.5 -28.5 -5 -3.5 -6.6 -8 -2.8 -8 2.7 0 15.9 4.6 19.1 6.7 1.9 1.3 2.1 1.3 1.8 -0.4 -0.1 -1 -0.7 -1.7 -1.2 -1.6 -0.5 0.1 -1.4 -0.7 -2.1 -1.8 -1.1 -1.7 -0.9 -1.9 1.7 -1.9 5.2 0 15.1 13.6 15.1 20.8 l0 3.2 -5.6 0 c-4.9 0 -5.5 0.2 -4.9 1.8 0.4 0.9 0.9 5 1.2 9 0.5 6.2 0.4 7.2 -1.1 7.2 -0.9 0 -1.6 -0.1 -1.6 -0.3z"/>
 </g>
 <g fill="#ad5323">
  <path d="M98.7 140.8 c-0.9 -0.7 -1.7 -2.9 -1.9 -4.8 -0.2 -2.9 -0.8 -3.6 -2.8 -3.9 -4.2 -0.5 -7.5 -3.6 -8.7 -8.2 -0.6 -2.4 -1 -4.5 -0.8 -4.7 0.2 -0.2 2.9 0.2 6 0.8 4.8 1 5.6 1.5 5.2 3 -0.4 1.4 0.3 2.2 2.4 2.9 2.9 1 2.9 1.1 2.9 8.5 0 4.2 -0.1 7.6 -0.3 7.6 -0.2 0 -1.1 -0.6 -2 -1.2z"/>
  <path d="M101 122.7 c0 -1.1 1.6 -1.9 5.3 -2.6 12.4 -2.6 23 -10.4 28.3 -20.8 2.7 -5.3 2.9 -6.7 2.9 -16.3 0 -8 -0.5 -11.7 -1.9 -15.3 -1 -2.6 -1.6 -5.1 -1.2 -5.4 0.4 -0.4 3.3 -0.7 6.6 -0.7 5.8 0.1 5.8 0.1 4.9 -2.4 -0.5 -1.3 -1.9 -3.8 -3 -5.3 l-2 -2.9 3 0 c2.1 0 3.1 0.5 3.1 1.5 0 0.8 0.4 1.5 0.9 1.5 1.7 0 5.3 10.6 5.8 17.1 l0.6 6.7 -3.9 1.2 c-4.7 1.5 -8.4 5.3 -8.4 8.3 0 3.1 -2.9 14 -3.9 14.7 -0.5 0.3 -1.1 1.5 -1.5 2.8 -0.4 1.2 -1.2 2.2 -1.7 2.2 -0.5 0 -0.9 0.5 -0.9 1.2 0 1.6 -5.1 6.8 -6.7 6.8 -0.7 0 -1.3 0.5 -1.3 1.1 0 1.8 -13.2 7.1 -19.2 7.7 -4.8 0.4 -5.8 0.2 -5.8 -1.1z"/>
 </g>
 <g fill="#88431e">
  <path d="M98.5 140.3 c-1.3 -1.2 -1.5 -2.6 -1 -5.9 0.6 -4.2 0.5 -4.4 -2.8 -5.7 -1.8 -0.8 -4.4 -2.7 -5.6 -4.3 l-2.3 -2.9 11.4 -0.6 c9.8 -0.5 12.2 -0.9 18 -3.6 12.2 -5.7 19.9 -15.7 22.1 -29.1 1.3 -7.5 3.4 -10.3 8.9 -12.1 3.4 -1.1 3.6 -1.4 3.3 -4.9 -0.2 -2 -1.1 -5.4 -2 -7.5 -1.5 -3.7 -1.5 -3.7 0.9 -3.7 3.4 0 5.7 6.8 6.3 19 0.7 12.1 -0.7 19.2 -5.5 28.8 l-3.8 7.7 -8 0.1 c-7 0.1 -8.8 0.5 -15.8 3.9 -4.3 2.1 -10.2 4.3 -13 4.9 l-5.1 1.1 -0.6 5.2 c-0.4 2.8 -1 5.6 -1.3 6.2 -0.4 0.6 -0.2 1.1 0.3 1.1 0.6 0 1.1 0.9 1.1 2 0 2.5 -3.2 2.7 -5.5 0.3z"/>
  <path d="M81 132.4 c0 -2.3 0.2 -2.5 1.7 -1.3 0.9 0.8 1.7 1.3 1.7 1.1 0.1 -0.2 0.9 0 1.9 0.3 2.9 1.2 1.9 2.5 -1.8 2.5 -3.1 0 -3.5 -0.3 -3.5 -2.6z"/>
  <path d="M144.3 55.7 c-1.2 -1.7 -3.2 -4.5 -4.4 -6 l-2.2 -2.8 3.4 0.3 c2.6 0.2 3.5 0.8 3.7 2.6 0.2 1.2 1 2.2 1.8 2.2 0.9 0 1.4 1.1 1.4 3.5 0 4.3 -0.9 4.4 -3.7 0.2z"/>
 </g>
 <g fill="#245060">
  <path d="M92.5 229.5 c-5.1 -2 -10 -6.7 -13.3 -13 l-2.7 -5 -0.3 -33.8 c-0.3 -30.7 -0.5 -33.9 -2 -34.4 -0.9 -0.3 -4.7 -2.6 -8.4 -5 -15.1 -9.9 -26.3 -28.1 -28.4 -46 -0.6 -6 -0.5 -6.3 1.5 -6.3 1.7 0 2.1 0.6 2.1 3.6 0 4.9 4.2 16.9 8.3 24 3.9 6.5 14.1 18.5 17.2 20.1 1.1 0.6 4.6 2.5 7.8 4.2 l5.7 3.3 0 33.1 c0 32.8 0 33.3 2.4 38.2 9.3 19.7 32.9 18.9 40.6 -1.3 1.7 -4.6 2 -7.6 2 -23.7 0 -18 0.1 -18.5 2.1 -18.5 2 0 2 0.3 1.7 20.8 -0.3 19.1 -0.5 21.1 -2.6 25.7 -2.8 6.1 -5.4 8.9 -11.1 12.3 -5.4 3.2 -16.4 4 -22.6 1.7z"/>
  <path d="M92.6 218.9 c-6 -4.7 -6.1 -5 -6.4 -45.1 -0.2 -21.9 -0.7 -36.8 -1.3 -36.8 -0.5 0 -0.9 -0.7 -0.9 -1.5 0 -1 -1 -1.5 -3 -1.5 -3.2 0 -8 -1.9 -8 -3.2 0 -0.4 -0.7 -0.8 -1.5 -0.8 -0.8 0 -1.5 -0.9 -1.5 -2 0 -1.5 -0.7 -2 -2.5 -2 -2 0 -2.5 -0.5 -2.5 -2.4 0 -1.9 -0.6 -2.5 -2.6 -2.8 -1.5 -0.2 -3.2 -1.2 -3.8 -2.2 -0.6 -1.1 -1.9 -2.8 -2.8 -3.8 -1 -1 -1.8 -2.5 -1.8 -3.3 0 -0.8 -0.4 -1.5 -0.9 -1.5 -0.5 0 -1.9 -3.3 -3.2 -7.2 -3.4 -10.4 -3.4 -28.4 0 -37.8 5 -13.6 10 -20.4 20.6 -27.2 9.4 -6.1 17.8 -8.3 32 -8.2 11.7 0 23.5 2.2 23.5 4.3 0 0.5 1.3 1.1 2.9 1.4 1.6 0.3 3.5 1.2 4.2 2 0.8 0.7 2.2 1.6 3.2 2 1.2 0.4 1.7 1.7 1.7 4.2 0 3.3 0.2 3.5 3.5 3.5 3.3 0 3.5 0.2 3.5 3.6 0 4.3 -0.7 4.1 -5.4 -1.5 -4.5 -5.3 -6.7 -7.1 -13.1 -10.4 -10.6 -5.5 -26 -7.3 -37.4 -4.2 -23.9 6.3 -39.3 27.7 -37.8 52.5 1.2 21.4 14.2 37.9 36 45.9 l2.7 1.1 0 34.2 c0 18.9 0.3 36 0.6 38.1 1.2 7.2 9.2 12.7 10.9 7.5 0.3 -1.3 1 -12.9 1.5 -25.8 0.5 -12.9 1.4 -27.3 1.9 -32 1.5 -11.6 1.4 -14 -0.4 -14 -2.4 0 -1.7 -2.2 2 -6.2 2.7 -3 4.1 -3.8 6.9 -3.8 l3.4 0 0.8 6.8 c0.4 3.7 0.8 21.3 0.8 39.2 0.1 36.5 0.1 36.8 -6.9 40.7 -5.5 3.1 -15.1 3.2 -18.9 0.2z"/>
  <path d="M126 143.5 c0 -2.9 0.5 -3.7 3.3 -5.1 4 -2 19.7 -13.6 19.7 -14.6 0 -0.4 1.8 -3.1 4 -6 4.7 -6.3 8.5 -15.3 10.2 -24.3 1 -5.3 1.6 -6.5 3.2 -6.5 1.7 0 1.8 0.5 1.2 5.4 -2.2 18.9 -14.3 37.3 -31.1 47.1 -3.7 2.2 -7 4.7 -7.3 5.7 -0.8 3.3 -3.2 2 -3.2 -1.7z"/>
  <path d="M37.5 76.3 c2.4 -23.1 17.7 -43.7 39.1 -52.6 20.3 -8.5 43.7 -6.5 61.6 5.2 16.3 10.6 27.5 28.8 29.4 47.6 0.6 6.2 0.6 6.5 -1.5 6.5 -1.6 0 -2.1 -0.6 -2.1 -2.8 0 -5.1 -3.9 -18.2 -7.2 -24.5 -3 -5.6 -13.5 -17.3 -21.1 -23.4 -1.6 -1.2 -6.9 -3.9 -12 -6 -8.8 -3.5 -9.7 -3.7 -20.7 -3.7 -10.9 0 -12 0.2 -21.5 3.8 -5.5 2.1 -10.1 4.2 -10.3 4.7 -0.2 0.5 -1 0.9 -1.8 0.9 -0.8 0 -1.4 0.5 -1.4 1 0 0.6 -0.4 1 -0.9 1 -1.2 0 -13.2 12.2 -15.4 15.7 -5.7 8.9 -10.7 22.9 -10.7 30 0 2.7 -0.4 3.3 -2.1 3.3 -2 0 -2.1 -0.3 -1.4 -6.7z"/>
 </g>
 <g fill="#763d1c">
  <path d="M100.1 141.1 c-1 -0.7 -1.2 -2 -0.7 -5.2 0.4 -2.4 1.1 -6.4 1.4 -8.9 0.7 -4.4 0.8 -4.5 5.7 -5.6 5.8 -1.3 16.2 -5.8 18.7 -8.1 0.9 -0.8 2.6 -1.3 3.7 -1 1.1 0.2 3.3 -0.4 5 -1.4 2.4 -1.4 3.1 -1.6 3.1 -0.5 0 1.4 4.5 3.1 5.9 2.2 0.5 -0.3 2.5 -4 4.6 -8.3 7.1 -14.6 7.1 -28.4 0.1 -42.6 -4.2 -8.4 -5 -9.6 -9.5 -14.5 l-3.5 -3.7 2.8 -0.3 c2.6 -0.3 6.6 2 6.6 3.9 0 0.4 1.1 1.9 2.4 3.2 3.3 3.3 7.3 11.4 9.1 18.4 1.7 6.6 2 20.5 0.5 28.4 -2.9 15.9 -16.2 31.3 -31.7 36.9 -3.5 1.2 -6.8 2.9 -7.4 3.6 -1.7 2 -2.7 1.7 -3.1 -0.8 -0.3 -2.2 -0.5 -2.1 -3.8 1.5 -3.4 3.7 -6.9 4.7 -9.9 2.8z"/>
  <path d="M76.3 132.8 c-1.3 -0.6 -2.3 -1.9 -2.3 -3 0 -1.3 -0.7 -1.8 -3 -1.8 -2 0 -3 -0.5 -3 -1.5 0 -0.8 -0.9 -1.5 -2 -1.5 -2.3 0 -3.3 -1.8 -2.8 -5 0.3 -2.1 0.4 -2.1 3.5 0.7 6 5.3 9.4 7.8 10.4 7.6 0.5 -0.2 0.9 0.2 0.9 0.8 0 0.5 0.5 0.7 1 0.4 0.6 -0.3 1 -0.1 1 0.4 0 0.6 0.3 1 0.8 0.9 1.2 -0.2 4.2 1.4 4.2 2.3 0 1.2 -6 1 -8.7 -0.3z"/>
 </g>
 <g fill="#002330">
  <path d="M94.2 229.1 c-6.6 -2.3 -11.7 -7 -14.8 -13.6 -2.4 -4.9 -2.4 -5.4 -2.4 -38.2 l0 -33.2 -6.2 -3.3 c-7.9 -4.1 -19.3 -15.2 -24.2 -23.7 -15.2 -26.1 -11.3 -57.8 9.8 -79.1 7.5 -7.6 13.2 -11.2 23.7 -15.2 8 -3 9.1 -3.2 22.9 -3.2 14 0 14.8 0.1 22.5 3.2 19.3 7.6 34.6 24.5 39.4 43.4 4.2 16.2 3.4 28.5 -2.5 43.2 -4.8 11.9 -17.9 25.8 -30.1 32 l-3.3 1.7 -0.2 12.7 c-0.1 7 -0.2 21.6 -0.4 32.4 -0.2 15.5 -0.6 20.8 -1.9 24.9 -4.5 13.5 -19.1 20.7 -32.3 16z m14.3 -13.4 c6.6 -3.7 6.9 -5.2 7 -30.7 0 -12.4 -0.2 -29 -0.5 -36.9 l-0.5 -14.5 6.7 -2.5 c20.2 -7.8 32.8 -26.2 32.8 -48 0 -18.2 -11.8 -37 -28.3 -45.1 -20.3 -10 -43.5 -6.5 -60 8.9 -5.8 5.4 -8.8 10.3 -12.4 20.2 -5.2 14.3 -3.1 31.8 5.4 44.6 4.5 6.9 13.4 14.6 20.3 17.9 3 1.4 6.5 3.1 7.7 3.6 2.2 1.1 2.2 1.2 2.5 37.7 0.3 32.4 0.5 37 2 39.8 4 7.3 10.1 9.1 17.3 5z"/>
 </g>
 <g fill="#001d2f">
  <path d="M82.5 34.1 c1.7 -1.1 4 -2.1 5.2 -2.1 1.2 0 2.5 -0.5 2.8 -1 0.4 -0.6 1.1 -0.8 1.6 -0.5 0.5 0.4 0.9 -0.1 0.9 -0.9 0 -0.9 0.9 -1.6 2.1 -1.6 1.1 0 1.8 0.4 1.5 0.9 -0.3 0.5 2.5 1.2 6.2 1.7 l6.7 0.8 -9.2 0.8 c-8.2 0.6 -13.3 1.6 -19.1 3.5 -0.9 0.3 -0.3 -0.4 1.3 -1.6z"/>
 </g>
</svg>