<svg xmlns="http://www.w3.org/2000/svg" width="257" height="255" viewBox="0 0 257 255">
<g>
<path d="M 126.25,23.55 L 126.43,23.94 L 126.51,24.23 L 126.65,24.87 L 126.72,25.31 L 126.83,26.25 L 126.88,26.84 L 126.98,28.11 L 127.02,28.88 L 127.09,30.51 L 127.13,31.48 L 127.19,33.51 L 127.22,34.68 L 127.50,46.50 L 135.50,47.12 L 139.54,47.49 L 142.00,47.76 L 143.14,47.92 L 147.52,48.63 L 149.57,49.13 L 153.61,50.24 L 155.73,50.99 L 157.88,51.78 L 159.02,52.24 L 161.35,53.19 L 162.61,53.74 L 171.79,58.30 L 177.60,61.79 L 180.34,63.74 L 185.71,67.78 L 188.20,69.99 L 193.07,74.54 L 195.30,76.98 L 199.61,81.96 L 201.55,84.61 L 205.27,89.99 L 206.90,92.81 L 209.97,98.53 L 211.26,101.50 L 213.64,107.51 L 214.56,110.60 L 215.98,115.87 L 216.60,119.04 L 216.79,120.83 L 216.97,122.68 L 217.03,123.72 L 217.15,125.90 L 217.19,127.16 L 217.27,129.80 L 217.29,131.35 L 217.34,134.60 L 217.35,136.50 L 217.38,142.53 L 217.35,145.93 L 217.30,147.40 L 217.18,150.19 L 217.07,151.43 L 216.82,153.82 L 216.64,154.93 L 215.73,159.25 L 214.95,161.62 L 214.10,164.06 L 213.58,165.44 L 212.47,168.32 L 211.80,170.00 L 209.84,174.37 L 208.28,177.37 L 207.39,178.90 L 203.53,185.04 L 201.25,188.09 L 196.49,194.12 L 193.87,196.95 L 188.51,202.45 L 185.72,204.85 L 182.56,207.29 L 180.04,209.02 L 178.62,209.91 L 175.69,211.70 L 174.12,212.59 L 170.92,214.36 L 169.27,215.21 L 162.56,218.53 L 159.35,219.89 L 156.17,221.18 L 154.69,221.72 L 151.81,222.71 L 150.52,223.06 L 147.80,223.70 L 146.11,223.95 L 142.52,224.42 L 140.49,224.59 L 136.29,224.88 L 134.05,224.96 L 129.50,225.09 L 127.18,225.09 L 122.55,225.04 L 120.29,224.95 L 115.83,224.74 L 113.76,224.56 L 109.74,224.18 L 107.99,223.92 L 104.67,223.36 L 103.37,223.02 L 97.61,221.28 L 93.82,219.91 L 91.96,219.12 L 88.24,217.46 L 86.40,216.51 L 82.74,214.56 L 80.93,213.46 L 77.32,211.20 L 75.52,209.96 L 71.95,207.39 L 70.17,205.99 L 66.62,203.11 L 64.85,201.55 L 61.32,198.35 L 59.55,196.62 L 56.72,193.82 L 55.10,192.18 L 54.41,191.43 L 51.91,188.63 L 50.91,187.27 L 49.05,184.53 L 48.14,182.89 L 47.22,181.18 L 46.73,180.21 L 45.72,178.18 L 45.15,177.00 L 43.06,172.37 L 41.71,169.11 L 41.10,167.53 L 39.95,164.42 L 39.50,163.05 L 38.70,160.46 L 38.48,159.50 L 37.06,154.05 L 36.61,152.55 L 36.42,151.99 L 36.06,151.00 L 35.93,150.76 L 35.71,150.07 L 35.58,149.36 L 35.52,148.90 L 35.31,146.81 L 35.23,145.46 L 35.10,142.59 L 35.06,140.99 L 35.01,137.71 L 35.01,136.04 L 35.04,132.72 L 35.08,131.17 L 35.19,128.17 L 35.27,126.92 L 35.46,124.61 L 35.58,123.84 L 35.71,123.15 L 35.78,122.92 L 35.92,122.55 L 36.00,122.50 L 36.71,121.50 L 37.00,120.49 L 37.00,119.96 L 37.18,118.39 L 37.47,117.03 L 37.68,116.25 L 38.65,112.93 L 39.25,111.26 L 39.86,109.62 L 40.17,108.87 L 40.77,107.45 L 41.05,106.88 L 41.59,105.83 L 41.82,105.50 L 42.24,104.99 L 42.39,104.99 L 42.86,105.07 L 43.41,105.21 L 43.79,105.31 L 45.57,105.83 L 46.79,106.21 L 49.41,107.03 L 50.93,107.53 L 54.10,108.58 L 55.79,109.15 L 59.19,110.32 L 61.11,111.01 L 61.91,111.30 L 63.41,111.88 L 64.01,112.13 L 65.13,112.61 L 65.56,112.82 L 66.34,113.23 L 66.62,113.42 L 67.10,113.78 L 67.24,113.95 L 67.55,114.59 L 67.41,114.91 L 66.05,118.80 L 65.32,121.62 L 65.04,123.13 L 64.55,126.20 L 64.39,127.80 L 64.13,131.05 L 64.09,132.71 L 64.18,139.46 L 64.59,142.83 L 65.06,146.18 L 65.39,147.82 L 66.10,151.08 L 66.55,152.64 L 68.36,158.13 L 69.74,161.59 L 70.52,163.22 L 72.14,166.43 L 73.05,167.94 L 74.94,170.93 L 75.99,172.34 L 78.16,175.12 L 79.35,176.45 L 81.82,179.05 L 83.18,180.30 L 85.97,182.75 L 87.48,183.93 L 90.61,186.25 L 92.30,187.37 L 96.96,190.18 L 100.14,191.84 L 101.77,192.55 L 105.03,193.91 L 106.69,194.48 L 110.02,195.55 L 111.71,195.97 L 115.09,196.75 L 116.79,197.03 L 120.21,197.52 L 121.92,197.65 L 125.35,197.86 L 127.07,197.85 L 130.49,197.76 L 132.20,197.62 L 135.60,197.25 L 137.29,196.96 L 140.66,196.30 L 142.33,195.87 L 145.64,194.94 L 147.27,194.37 L 150.51,193.16 L 152.10,192.45 L 155.25,190.96 L 156.79,190.11 L 159.83,188.34 L 161.31,187.35 L 164.23,185.31 L 165.64,184.19 L 168.42,181.87 L 169.75,180.61 L 175.44,174.67 L 178.61,170.73 L 179.94,168.67 L 182.45,164.48 L 183.51,162.19 L 185.54,157.47 L 186.43,154.81 L 187.63,150.53 L 188.26,147.50 L 188.49,145.93 L 189.18,139.51 L 189.19,136.22 L 188.96,129.63 L 188.50,126.45 L 187.99,123.29 L 187.64,121.78 L 186.90,118.79 L 186.44,117.38 L 184.26,111.71 L 182.52,108.05 L 181.51,106.28 L 179.40,102.80 L 178.22,101.14 L 175.78,97.87 L 174.45,96.33 L 171.71,93.32 L 170.24,91.92 L 167.23,89.19 L 165.63,87.95 L 162.38,85.55 L 160.67,84.48 L 157.21,82.43 L 155.41,81.55 L 149.21,78.94 L 144.84,77.45 L 142.66,76.88 L 138.33,75.84 L 136.31,75.52 L 132.41,75.03 L 130.75,75.02 L 127.00,75.00 L 127.00,88.00 L 126.94,93.05 L 126.85,96.00 L 126.78,97.18 L 126.71,98.30 L 126.67,98.77 L 126.58,99.64 L 126.54,99.97 L 126.45,100.56 L 126.40,100.73 L 126.30,101.00 L 126.25,101.00 L 125.86,100.79 L 125.37,100.45 L 125.03,100.19 L 124.29,99.61 L 123.83,99.24 L 122.85,98.45 L 122.29,97.99 L 119.86,95.96 L 118.42,94.73 L 115.44,92.16 L 113.84,90.75 L 108.48,86.06 L 104.52,82.61 L 102.51,80.87 L 98.50,77.40 L 96.65,75.80 L 94.83,74.24 L 93.99,73.52 L 92.35,72.12 L 91.62,71.50 L 87.52,67.95 L 85.11,65.81 L 84.15,64.93 L 83.24,64.09 L 82.86,63.73 L 82.14,63.04 L 81.87,62.77 L 81.39,62.28 L 81.25,62.11 L 81.03,61.84 L 81.03,61.79 L 81.31,61.31 L 81.84,60.72 L 82.32,60.25 L 83.42,59.19 L 84.24,58.44 L 85.10,57.66 L 85.60,57.20 L 86.66,56.25 L 87.27,55.71 L 88.54,54.58 L 89.26,53.94 L 90.76,52.61 L 91.60,51.87 L 93.35,50.33 L 94.32,49.48 L 96.33,47.72 L 97.44,46.76 L 99.73,44.76 L 100.98,43.66 L 103.56,41.41 L 104.97,40.19 L 107.87,37.67 L 109.43,36.31 L 112.66,33.51 L 114.39,32.00 L 118.30,28.67 L 120.70,26.70 L 121.71,25.90 L 123.59,24.45 L 124.25,23.98 L 124.86,23.55 L 125.08,23.42 L 125.46,23.20 L 125.56,23.18 M 128.67,120.36 L 131.92,121.02 L 133.42,121.65 L 136.35,123.11 L 137.62,124.11 L 140.03,126.29 L 140.97,127.62 L 142.68,130.45 L 143.20,132.07 L 143.66,133.72 L 143.79,134.60 L 144.00,136.38 L 144.00,137.32 L 143.85,140.20 L 143.61,141.99 L 143.40,142.82 L 142.39,145.99 L 141.56,147.36 L 139.68,149.95 L 138.39,151.07 L 137.04,152.16 L 136.27,152.66 L 134.68,153.64 L 133.79,154.10 L 131.17,155.25 L 129.83,155.55 L 127.14,155.97 L 125.76,155.90 L 122.95,155.58 L 121.49,155.13 L 118.53,154.06 L 116.98,153.25 L 112.84,150.52 L 110.78,148.46 L 110.06,147.26 L 108.83,144.73 L 108.49,143.23 L 108.00,140.08 L 108.00,138.22 L 108.33,134.03 L 108.89,131.59 L 109.37,130.51 L 110.45,128.43 L 111.21,127.47 L 112.87,125.60 L 113.94,124.71 L 116.23,123.04 L 117.82,122.12 L 118.64,121.76 L 121.96,120.58 L 123.65,120.35 L 127.02,120.13 Z" fill="rgb(0,17,28)"/>
<path d="M 162.38,85.55 L 165.63,87.95 L 167.23,89.19 L 170.24,91.92 L 171.71,93.32 L 174.45,96.33 L 175.78,97.87 L 178.22,101.14 L 179.40,102.80 L 181.51,106.28 L 182.52,108.05 L 184.26,111.71 L 186.44,117.38 L 186.90,118.79 L 187.64,121.78 L 187.99,123.29 L 188.50,126.45 L 188.96,129.63 L 189.19,136.22 L 189.18,139.51 L 188.49,145.93 L 188.26,147.50 L 187.63,150.53 L 186.43,154.81 L 185.54,157.47 L 183.51,162.19 L 182.45,164.48 L 179.94,168.67 L 178.61,170.73 L 175.44,174.67 L 169.75,180.61 L 168.42,181.87 L 165.64,184.19 L 164.23,185.31 L 161.31,187.35 L 159.83,188.34 L 156.79,190.11 L 155.25,190.96 L 152.10,192.45 L 150.51,193.16 L 147.27,194.37 L 145.64,194.94 L 142.33,195.87 L 140.66,196.30 L 137.29,196.96 L 135.60,197.25 L 132.20,197.62 L 130.49,197.76 L 127.07,197.85 L 125.35,197.86 L 121.92,197.65 L 120.21,197.52 L 116.79,197.03 L 115.09,196.75 L 111.71,195.97 L 110.02,195.55 L 106.69,194.48 L 105.03,193.91 L 101.77,192.55 L 100.52,192.00 L 100.58,192.00 L 101.21,191.78 L 101.53,191.42 L 101.65,191.13 L 101.85,190.48 L 101.91,190.04 L 102.00,189.09 L 102.00,188.50 L 102.13,186.03 L 102.22,185.45 L 102.27,185.28 L 102.38,185.00 L 102.44,185.00 L 103.15,185.13 L 104.09,185.33 L 104.75,185.47 L 106.17,185.79 L 107.01,185.98 L 108.75,186.38 L 109.69,186.60 L 113.98,187.39 L 116.89,187.71 L 118.37,187.77 L 124.30,187.76 L 127.28,187.38 L 133.23,186.39 L 136.14,185.56 L 141.92,183.67 L 144.68,182.42 L 150.09,179.73 L 152.60,178.12 L 157.46,174.71 L 159.62,172.76 L 161.73,170.77 L 162.71,169.73 L 164.61,167.60 L 165.47,166.48 L 167.13,164.22 L 167.86,163.04 L 169.26,160.65 L 169.85,159.41 L 171.78,155.42 L 172.36,154.26 L 172.59,153.79 L 173.01,152.96 L 173.13,152.71 L 173.58,151.35 L 173.91,149.95 L 174.08,149.08 L 174.75,145.18 L 175.04,143.06 L 175.30,140.95 L 175.41,139.96 L 175.60,138.05 L 175.66,137.24 L 175.75,135.73 L 175.74,135.20 L 175.69,134.31 L 175.61,134.18 L 175.41,133.34 L 175.27,132.30 L 175.21,131.61 L 175.08,130.10 L 175.03,129.23 L 174.93,127.42 L 174.90,126.47 L 174.33,120.75 L 174.02,119.07 L 173.85,118.40 L 173.50,117.17 L 173.32,116.80 L 172.27,114.18 L 171.97,112.83 L 172.02,112.36 L 172.26,111.59 L 172.57,111.43 L 173.34,111.29 L 173.92,111.47 L 175.18,111.64 L 175.79,111.34 L 176.03,110.89 L 176.27,110.37 L 176.38,110.02 L 176.60,109.26 L 176.71,108.77 L 176.93,107.71 L 177.05,107.06 L 177.30,105.68 L 177.44,104.86 L 177.61,102.65 L 177.34,101.36 L 176.88,100.60 L 176.37,99.80 L 176.01,99.34 L 175.23,98.36 L 174.72,97.77 L 173.61,96.53 L 172.92,95.78 L 171.44,94.20 L 170.55,93.25 L 166.54,89.18 L 164.18,87.03 L 163.03,86.15 L 161.10,84.75 M 84.51,181.44 L 88.69,184.81 L 90.86,186.37 L 91.82,187.06 L 90.61,186.25 L 87.48,183.93 L 85.97,182.75 L 83.91,180.94 M 70.34,162.75 L 72.07,166.12 L 73.04,167.75 L 75.07,170.96 L 76.19,172.50 L 78.35,175.34 L 78.16,175.12 L 75.99,172.34 L 74.94,170.93 L 73.05,167.94 L 72.14,166.43 L 70.52,163.22 L 69.74,161.59 L 69.56,161.14 M 64.20,139.58 L 64.18,139.46 L 64.18,139.19 M 65.31,122.39 L 65.00,124.25 L 64.45,128.05 L 64.28,129.98 L 64.09,132.74 L 64.09,132.71 L 64.13,131.05 L 64.39,127.80 L 64.55,126.20 L 65.04,123.13 L 65.32,121.62 L 66.05,118.80 L 67.41,114.91 L 66.08,119.03 M 142.66,76.88 L 144.84,77.45 L 149.21,78.94 L 155.41,81.55 L 157.21,82.43 L 157.93,82.86 L 156.95,82.30 L 155.45,81.57 L 149.23,78.95 L 144.85,77.46 L 142.67,76.88 L 140.24,76.30 Z" fill="rgb(138,68,28)"/>
<path d="M 126.40,100.73 L 126.45,100.56 L 126.54,99.97 L 126.58,99.64 L 126.67,98.77 L 126.71,98.30 L 126.78,97.18 L 126.85,96.00 L 126.94,93.05 L 127.00,88.00 L 127.00,90.87 L 126.94,94.80 L 126.85,97.11 L 126.78,98.02 L 126.63,99.69 L 126.54,100.20 L 126.35,101.00 L 126.30,101.00 M 64.34,129.35 L 64.25,131.49 L 64.16,135.82 L 64.27,138.00 L 64.60,142.57 L 64.93,145.43 L 65.15,146.78 L 65.62,149.41 L 65.91,150.64 L 66.17,151.64 L 65.82,150.41 L 65.05,146.75 L 64.70,144.91 L 64.27,141.21 L 64.02,135.64 L 64.02,133.83 L 64.28,129.98 L 64.45,128.05 L 64.61,126.95 M 109.37,130.51 L 108.89,131.59 L 108.33,134.03 L 108.03,137.88 L 107.99,137.56 L 108.14,135.50 L 108.35,133.49 L 108.56,132.60 L 109.05,130.89 L 109.40,130.20 L 110.00,129.30 M 111.21,127.47 L 111.20,127.49 L 111.28,127.36 L 112.81,125.66 L 112.85,125.63 M 114.34,124.41 L 115.50,123.51 L 115.90,123.28 M 119.54,121.44 L 119.61,121.42 L 119.77,121.36 M 61.11,111.01 L 61.91,111.30 L 63.41,111.88 L 64.02,112.13 L 65.13,112.61 L 65.56,112.82 L 66.34,113.23 L 66.62,113.42 L 66.77,113.53 L 66.62,113.42 L 66.34,113.23 L 65.56,112.82 L 65.13,112.61 L 64.01,112.13 L 63.41,111.88 L 61.91,111.30 L 61.11,111.01 L 59.19,110.32 L 55.79,109.15 L 59.19,110.32 M 130.75,75.02 L 132.41,75.03 L 136.32,75.52 L 138.34,75.84 L 142.67,76.88 L 144.85,77.46 L 149.23,78.95 L 155.45,81.57 L 156.95,82.30 L 159.51,83.75 L 160.75,84.49 L 163.03,86.15 L 164.18,87.03 L 166.54,89.18 L 170.55,93.25 L 171.44,94.20 L 172.92,95.78 L 173.61,96.53 L 174.72,97.77 L 175.23,98.36 L 176.01,99.34 L 176.37,99.80 L 176.88,100.60 L 177.34,101.36 L 177.61,102.65 L 177.44,104.86 L 177.30,105.68 L 177.05,107.06 L 176.93,107.71 L 176.71,108.77 L 176.60,109.26 L 176.38,110.02 L 176.27,110.37 L 176.03,110.89 L 175.79,111.34 L 175.18,111.64 L 173.92,111.47 L 173.34,111.29 L 172.57,111.43 L 172.26,111.59 L 172.02,112.36 L 171.97,112.83 L 172.27,114.18 L 173.32,116.80 L 173.50,117.17 L 173.85,118.40 L 174.02,119.07 L 174.33,120.75 L 174.90,126.47 L 174.93,127.42 L 175.03,129.23 L 175.08,130.10 L 175.21,131.61 L 175.27,132.30 L 175.41,133.34 L 175.61,134.18 L 175.69,134.31 L 175.74,135.20 L 175.75,135.73 L 175.66,137.24 L 175.60,138.05 L 175.41,139.96 L 175.30,140.95 L 175.04,143.06 L 174.75,145.18 L 174.08,149.08 L 173.91,149.95 L 173.58,151.35 L 173.13,152.71 L 173.01,152.96 L 172.59,153.79 L 172.36,154.26 L 171.78,155.42 L 169.85,159.41 L 169.26,160.65 L 167.86,163.04 L 167.13,164.22 L 165.47,166.48 L 164.61,167.60 L 162.71,169.73 L 161.73,170.77 L 159.62,172.76 L 157.46,174.71 L 152.60,178.12 L 150.09,179.73 L 144.68,182.42 L 141.92,183.67 L 136.14,185.56 L 133.23,186.39 L 127.28,187.38 L 124.30,187.76 L 118.37,187.77 L 116.89,187.71 L 113.98,187.39 L 109.69,186.60 L 108.75,186.38 L 107.01,185.98 L 106.17,185.79 L 104.75,185.47 L 104.09,185.33 L 103.15,185.13 L 102.44,185.00 L 102.38,185.00 L 102.27,185.28 L 102.22,185.45 L 102.13,186.03 L 102.00,188.50 L 102.00,189.09 L 101.91,190.04 L 101.85,190.48 L 101.65,191.13 L 101.53,191.42 L 101.21,191.78 L 100.58,192.00 L 100.26,192.00 L 99.13,191.56 L 98.50,191.28 L 96.87,190.36 L 96.00,189.85 L 94.03,188.57 L 93.01,187.90 L 90.86,186.37 L 88.69,184.81 L 84.51,181.44 L 83.53,180.62 L 81.81,179.07 L 79.76,176.98 L 78.50,175.54 L 76.19,172.50 L 75.07,170.96 L 73.04,167.75 L 72.07,166.12 L 70.34,162.75 L 69.52,161.05 L 68.10,157.56 L 67.43,155.80 L 67.17,154.97 L 67.65,156.32 L 68.08,157.33 L 68.99,159.28 L 69.50,160.17 L 71.69,163.53 L 73.00,164.88 L 75.83,168.43 L 76.48,169.53 L 76.68,170.00 L 77.00,170.86 L 77.00,171.16 L 77.38,172.43 L 77.97,173.46 L 78.41,174.04 L 80.45,176.45 L 81.72,177.63 L 84.37,179.90 L 85.61,180.70 L 86.82,181.42 L 87.35,181.65 L 88.35,182.00 L 88.73,182.00 L 90.33,181.62 L 91.00,181.06 L 91.00,180.70 L 91.30,180.08 L 91.76,179.61 L 92.10,179.36 L 93.72,178.36 L 94.75,177.97 L 97.64,176.95 L 98.97,176.61 L 99.38,176.60 L 100.05,176.69 L 100.17,176.90 L 100.30,177.43 L 100.21,177.86 L 100.33,179.19 L 100.71,180.15 L 101.00,180.50 L 102.37,181.30 L 103.46,181.41 L 103.95,181.28 L 104.88,180.92 L 105.15,180.59 L 105.50,179.87 L 105.32,179.40 L 105.37,178.39 L 105.89,178.00 L 106.36,178.00 L 107.78,177.41 L 108.71,176.55 L 109.00,176.00 L 110.14,174.59 L 111.02,174.00 L 111.38,174.00 L 112.82,173.43 L 113.97,172.59 L 114.45,172.05 L 115.39,170.90 L 115.65,170.31 L 115.59,170.02 L 115.32,169.42 L 114.97,169.03 L 114.12,168.17 L 113.46,167.55 L 111.27,165.75 L 110.64,165.33 L 110.40,165.20 L 109.97,165.00 L 109.85,165.00 L 109.25,164.27 L 109.00,163.19 L 109.00,162.50 L 109.23,160.73 L 109.57,160.00 L 109.78,160.00 L 110.22,159.65 L 110.60,159.10 L 110.82,158.70 L 111.76,156.79 L 112.21,155.58 L 112.95,153.40 L 113.22,152.34 L 113.25,151.97 L 113.23,151.32 L 113.12,151.11 L 112.83,150.76 L 112.58,150.67 L 111.19,149.58 L 110.37,148.39 L 110.02,147.60 L 109.35,145.94 L 109.27,145.63 L 110.06,147.26 L 110.78,148.46 L 112.84,150.52 L 116.98,153.25 L 118.53,154.06 L 121.49,155.13 L 122.95,155.58 L 125.76,155.90 L 127.14,155.97 L 129.83,155.55 L 131.17,155.25 L 133.79,154.10 L 134.68,153.64 L 136.27,152.66 L 137.04,152.16 L 138.39,151.07 L 139.68,149.95 L 141.56,147.36 L 142.39,145.99 L 143.40,142.82 L 143.61,141.99 L 143.85,140.20 L 144.00,137.32 L 144.00,136.38 L 143.79,134.60 L 143.66,133.72 L 143.20,132.07 L 142.68,130.45 L 140.97,127.62 L 140.03,126.29 L 137.62,124.11 L 136.35,123.11 L 133.42,121.65 L 131.92,121.02 L 128.67,120.36 L 127.02,120.13 L 123.65,120.35 L 122.71,120.48 L 122.90,120.44 L 125.13,120.07 L 126.25,120.04 L 128.47,120.08 L 129.55,120.27 L 131.68,120.75 L 132.68,121.16 L 134.93,121.92 L 135.57,122.07 L 135.81,122.11 L 136.25,122.15 L 136.38,122.12 L 137.47,122.38 L 138.43,122.92 L 138.88,123.31 L 140.83,124.67 L 142.11,125.26 L 142.71,125.39 L 143.89,125.54 L 144.42,125.45 L 145.44,125.14 L 145.88,124.82 L 146.66,124.25 L 146.94,124.07 L 146.97,124.08 L 146.95,124.18 L 146.83,124.33 L 146.51,124.70 L 146.25,125.00 L 145.21,126.47 L 144.96,127.18 L 145.04,127.35 L 145.31,127.55 L 145.62,127.41 L 146.34,126.96 L 146.85,126.42 L 147.96,124.82 L 147.99,124.04 L 147.64,123.81 L 147.27,123.28 L 147.26,122.83 L 147.35,122.58 L 147.96,121.49 L 148.51,120.96 L 149.73,119.97 L 150.40,119.66 L 151.74,119.22 L 152.29,119.37 L 153.12,119.51 L 153.49,119.48 L 153.60,119.40 L 153.75,119.20 L 153.75,119.03 L 153.69,118.64 L 153.59,118.38 L 153.47,117.46 L 153.84,117.40 L 154.24,117.65 L 155.25,117.95 L 156.37,118.14 L 157.09,118.23 L 158.63,118.38 L 159.51,118.44 L 161.30,118.53 L 162.23,118.55 L 164.33,118.59 L 165.48,118.59 L 165.95,118.58 L 167.53,118.49 L 167.98,118.36 L 168.69,118.02 L 168.83,117.73 L 169.00,117.05 L 169.00,116.55 L 168.66,114.69 L 168.16,113.56 L 167.85,113.25 L 167.20,112.40 L 166.61,111.52 L 166.27,110.96 L 164.81,108.46 L 164.10,107.08 L 162.28,104.02 L 160.82,101.93 L 159.98,100.88 L 156.38,96.67 L 154.31,94.69 L 150.06,90.86 L 147.87,89.26 L 145.67,87.71 L 144.59,87.05 L 142.44,85.80 L 141.40,85.31 L 135.32,82.74 L 133.43,82.07 L 132.63,81.83 L 131.16,81.41 L 130.65,81.33 L 127.00,80.74 L 127.00,75.00 Z" fill="rgb(208,114,54)"/>
<path d="M 130.65,81.33 L 131.16,81.41 L 132.63,81.83 L 133.43,82.07 L 135.32,82.74 L 141.40,85.31 L 142.44,85.80 L 144.59,87.05 L 145.67,87.71 L 147.87,89.26 L 150.06,90.86 L 154.31,94.69 L 156.38,96.67 L 159.98,100.88 L 160.82,101.93 L 162.28,104.02 L 164.10,107.08 L 164.81,108.46 L 166.27,110.96 L 166.61,111.52 L 167.20,112.40 L 167.85,113.25 L 168.16,113.56 L 168.66,114.69 L 169.00,116.55 L 169.00,117.05 L 168.83,117.73 L 168.69,118.02 L 167.98,118.36 L 167.53,118.49 L 165.95,118.58 L 165.48,118.59 L 164.33,118.59 L 162.23,118.55 L 161.30,118.53 L 159.51,118.44 L 158.63,118.38 L 157.09,118.23 L 156.37,118.14 L 155.25,117.95 L 154.24,117.65 L 153.84,117.40 L 153.47,117.46 L 153.59,118.38 L 153.69,118.64 L 153.75,119.03 L 153.75,119.20 L 153.60,119.40 L 153.49,119.48 L 153.12,119.51 L 152.29,119.37 L 151.74,119.22 L 150.40,119.66 L 149.73,119.97 L 148.51,120.96 L 147.96,121.49 L 147.35,122.58 L 147.26,122.83 L 147.27,123.28 L 147.64,123.81 L 147.99,124.04 L 147.96,124.82 L 146.85,126.42 L 146.34,126.96 L 145.62,127.41 L 145.31,127.55 L 145.04,127.35 L 144.96,127.18 L 145.21,126.47 L 146.25,125.00 L 146.51,124.70 L 146.83,124.33 L 146.95,124.18 L 146.97,124.08 L 146.94,124.07 L 146.66,124.25 L 145.88,124.82 L 145.44,125.14 L 144.42,125.45 L 143.89,125.54 L 142.71,125.39 L 142.11,125.26 L 140.83,124.67 L 138.88,123.31 L 138.43,122.92 L 137.47,122.38 L 136.38,122.12 L 136.25,122.15 L 135.81,122.11 L 135.57,122.07 L 134.93,121.92 L 132.68,121.16 L 131.68,120.75 L 129.55,120.27 L 128.47,120.08 L 126.25,120.04 L 125.13,120.07 L 122.90,120.44 L 121.78,120.67 L 119.61,121.42 L 118.53,121.83 L 116.50,122.93 L 115.50,123.51 L 113.68,124.92 L 112.81,125.66 L 111.28,127.36 L 109.40,130.20 L 109.05,130.89 L 108.56,132.60 L 108.35,133.49 L 108.14,135.50 L 107.99,137.56 L 108.44,141.93 L 108.60,142.99 L 109.09,144.98 L 109.35,145.94 L 110.02,147.60 L 110.37,148.39 L 111.19,149.58 L 112.58,150.67 L 112.83,150.76 L 113.12,151.11 L 113.23,151.32 L 113.25,151.97 L 113.22,152.34 L 112.95,153.40 L 112.21,155.58 L 111.76,156.79 L 110.82,158.70 L 110.60,159.10 L 110.22,159.65 L 109.78,160.00 L 109.57,160.00 L 109.23,160.73 L 109.00,162.50 L 109.00,163.19 L 109.25,164.27 L 109.85,165.00 L 109.97,165.00 L 110.40,165.20 L 110.64,165.33 L 111.27,165.75 L 113.46,167.55 L 114.12,168.17 L 114.97,169.03 L 115.32,169.42 L 115.59,170.02 L 115.65,170.31 L 115.39,170.90 L 114.45,172.05 L 113.97,172.59 L 112.82,173.43 L 111.38,174.00 L 111.02,174.00 L 110.14,174.59 L 109.00,176.00 L 108.71,176.55 L 107.78,177.41 L 106.36,178.00 L 105.89,178.00 L 105.37,178.39 L 105.32,179.40 L 105.50,179.87 L 105.15,180.59 L 104.88,180.92 L 103.95,181.28 L 103.46,181.41 L 102.37,181.30 L 101.00,180.50 L 100.71,180.15 L 100.33,179.19 L 100.21,177.86 L 100.30,177.43 L 100.17,176.90 L 100.05,176.69 L 99.38,176.60 L 98.97,176.61 L 97.64,176.95 L 94.75,177.97 L 93.72,178.36 L 92.10,179.36 L 91.76,179.61 L 91.30,180.08 L 91.00,180.70 L 91.00,181.06 L 90.33,181.62 L 88.73,182.00 L 88.35,182.00 L 87.35,181.65 L 86.82,181.42 L 85.61,180.70 L 84.37,179.90 L 81.72,177.63 L 80.45,176.45 L 78.41,174.04 L 77.97,173.46 L 77.38,172.43 L 77.00,171.16 L 77.00,170.86 L 76.68,170.00 L 76.48,169.53 L 75.83,168.43 L 73.00,164.88 L 71.69,163.53 L 69.50,160.17 L 68.99,159.28 L 68.08,157.33 L 67.65,156.32 L 66.89,154.15 L 66.52,153.04 L 65.91,150.64 L 65.62,149.41 L 65.15,146.78 L 64.93,145.43 L 64.60,142.57 L 64.39,139.71 L 64.43,139.78 L 64.55,139.83 L 64.81,139.84 L 64.96,139.71 L 65.29,139.34 L 65.48,139.00 L 66.12,137.65 L 66.58,136.49 L 66.81,135.82 L 67.73,133.02 L 68.05,131.70 L 68.71,129.54 L 69.24,128.27 L 69.54,127.73 L 70.16,126.72 L 70.51,126.32 L 71.23,125.59 L 71.61,125.33 L 73.30,123.71 L 74.00,122.48 L 74.00,121.99 L 74.44,120.57 L 75.09,119.80 L 75.50,119.64 L 76.56,118.74 L 77.00,117.84 L 77.00,117.38 L 77.26,115.68 L 77.68,114.30 L 77.99,113.52 L 79.48,110.21 L 80.46,108.49 L 82.54,105.08 L 83.62,103.64 L 84.70,102.27 L 85.22,101.71 L 86.25,100.68 L 86.71,100.33 L 89.50,98.06 L 90.20,97.40 L 90.44,97.15 L 90.84,96.69 L 90.90,96.56 L 91.39,95.79 L 91.92,95.15 L 92.27,94.78 L 93.89,93.21 L 94.89,92.35 L 97.00,90.62 L 98.09,89.83 L 100.25,88.33 L 101.20,87.79 L 102.85,86.79 L 103.73,86.17 L 104.07,85.88 L 104.67,85.32 L 104.87,85.05 L 105.19,84.51 L 105.25,84.25 L 105.30,83.73 L 105.23,83.46 L 105.08,83.09 L 108.48,86.06 L 113.84,90.75 L 115.44,92.16 L 118.42,94.73 L 119.86,95.96 L 122.29,97.99 L 122.85,98.45 L 123.83,99.24 L 124.29,99.61 L 125.03,100.19 L 125.37,100.45 L 125.86,100.79 L 126.25,101.00 L 126.35,101.00 L 126.54,100.20 L 126.63,99.69 L 126.78,98.02 L 126.85,97.11 L 126.94,94.80 L 127.00,90.87 L 127.00,80.74 M 65.61,121.12 L 65.32,122.64 L 64.54,127.62 L 64.80,125.27 L 65.07,123.27 L 65.87,119.63 L 66.26,118.44 M 67.10,113.78 L 67.24,113.95 L 67.55,114.59 L 67.41,114.91 L 67.26,115.38 L 67.41,114.91 L 67.55,114.59 L 67.24,113.95 L 67.10,113.78 L 66.77,113.53 M 91.62,71.50 L 92.35,72.12 L 93.99,73.52 L 94.83,74.24 L 96.65,75.80 L 98.50,77.40 L 99.42,78.19 L 98.87,77.74 L 97.78,76.83 L 95.51,74.91 L 94.30,73.87 L 91.85,71.76 L 90.64,70.70 L 88.25,68.59 L 87.86,68.25 M 112.66,33.51 L 109.43,36.31 L 107.87,37.67 L 104.97,40.19 L 103.56,41.41 L 100.98,43.66 L 99.73,44.76 L 97.44,46.76 L 96.33,47.72 L 94.32,49.48 L 93.35,50.33 L 92.55,51.04 L 93.20,50.46 L 94.45,49.34 L 99.66,44.72 L 102.37,42.35 L 107.83,37.61 L 110.42,35.39 L 112.98,33.20 L 113.98,32.36 M 125.24,23.33 L 125.42,23.22 L 125.46,23.20 Z" fill="rgb(220,137,72)"/>
<path d="M 148.86,223.49 L 147.29,223.83 L 144.20,224.41 L 142.46,224.58 L 140.66,224.73 L 139.64,224.78 L 137.51,224.87 L 136.28,224.90 L 135.53,224.91 L 136.29,224.88 L 140.49,224.59 L 142.52,224.42 L 146.11,223.95 L 147.80,223.70 L 149.76,223.24 M 50.91,187.27 L 51.91,188.63 L 54.41,191.43 L 55.10,192.18 L 56.72,193.82 L 59.55,196.62 L 61.32,198.35 L 64.85,201.55 L 66.62,203.11 L 70.17,205.99 L 71.95,207.39 L 75.52,209.96 L 77.32,211.20 L 80.93,213.46 L 82.74,214.56 L 86.40,216.51 L 88.24,217.46 L 91.96,219.12 L 93.82,219.91 L 97.61,221.28 L 103.37,223.02 L 104.29,223.26 L 102.94,223.03 L 100.62,222.40 L 96.03,221.00 L 93.62,220.06 L 91.02,219.45 L 89.36,219.39 L 88.84,219.55 L 87.76,219.57 L 86.77,219.36 L 86.17,219.16 L 84.89,218.69 L 84.17,218.37 L 82.67,217.68 L 81.85,217.26 L 78.47,215.40 L 76.70,214.27 L 73.15,211.90 L 71.51,210.62 L 69.35,208.80 L 67.65,207.27 L 66.72,206.40 L 62.82,202.66 L 60.96,200.77 L 59.13,198.90 L 58.32,198.04 L 56.78,196.38 L 56.17,195.69 L 55.07,194.41 L 54.74,193.97 L 54.24,193.24 L 54.28,193.13 L 54.09,192.50 L 53.72,191.76 L 53.44,191.27 L 52.81,190.21 L 52.42,189.60 L 51.60,188.34 L 51.14,187.67 L 50.30,186.36 M 209.72,174.62 L 208.93,176.18 L 207.33,179.18 L 206.51,180.50 L 203.99,184.82 L 203.25,186.17 L 202.96,186.74 L 202.42,187.80 L 202.27,188.17 L 201.21,189.93 L 200.10,191.45 L 199.37,192.33 L 197.82,194.18 L 196.92,195.18 L 195.06,197.23 L 194.05,198.28 L 189.88,202.53 L 187.81,204.45 L 185.76,206.31 L 184.80,207.13 L 182.94,208.67 L 182.12,209.27 L 176.41,213.19 L 172.50,215.62 L 170.70,216.63 L 168.93,217.60 L 168.12,218.01 L 166.57,218.78 L 165.89,219.07 L 164.62,219.60 L 164.12,219.76 L 163.21,220.00 L 162.92,220.00 L 161.50,220.20 L 160.00,220.51 L 159.05,220.73 L 157.03,221.23 L 155.90,221.53 L 153.59,222.16 L 152.44,222.49 L 154.69,221.72 L 156.17,221.18 L 159.35,219.89 L 162.56,218.53 L 169.27,215.21 L 170.92,214.36 L 174.12,212.59 L 175.69,211.70 L 178.62,209.91 L 180.04,209.02 L 182.56,207.29 L 185.72,204.85 L 188.51,202.45 L 193.87,196.95 L 196.49,194.12 L 201.25,188.09 L 203.53,185.04 L 207.39,178.90 L 208.28,177.37 L 209.84,174.37 M 39.50,163.05 L 39.95,164.42 L 41.10,167.53 L 41.71,169.11 L 43.06,172.37 L 45.15,177.00 L 45.72,178.18 L 46.30,179.35 L 44.85,176.52 L 43.69,173.95 L 41.47,168.76 L 40.58,166.29 L 39.74,163.86 L 39.39,162.72 L 39.14,161.88 M 217.31,147.49 L 217.27,148.49 L 217.19,150.40 L 217.13,151.24 L 216.84,154.30 L 216.61,155.54 L 216.10,157.89 L 215.85,158.67 L 216.64,154.93 L 216.82,153.82 L 217.07,151.43 L 217.18,150.19 L 217.30,147.40 L 217.32,146.89 M 217.37,143.99 L 217.36,144.38 L 217.37,143.54 M 217.37,141.74 L 217.35,136.50 L 217.38,141.23 M 94.30,73.87 L 95.51,74.91 L 97.78,76.83 L 98.87,77.74 L 100.72,79.25 L 102.77,80.84 L 103.24,81.17 L 103.98,81.78 L 104.32,82.08 L 104.80,82.65 L 105.01,82.93 L 105.23,83.46 L 105.30,83.73 L 105.25,84.25 L 105.19,84.51 L 104.87,85.05 L 104.67,85.32 L 104.07,85.88 L 103.73,86.17 L 102.85,86.79 L 101.20,87.79 L 100.25,88.33 L 98.09,89.83 L 97.00,90.62 L 94.89,92.35 L 93.89,93.21 L 92.27,94.78 L 91.92,95.15 L 91.39,95.79 L 90.90,96.56 L 90.84,96.69 L 90.44,97.15 L 90.20,97.40 L 89.50,98.06 L 86.71,100.33 L 86.25,100.68 L 85.22,101.71 L 84.70,102.27 L 83.62,103.64 L 82.54,105.08 L 80.46,108.49 L 79.48,110.21 L 77.99,113.52 L 77.68,114.30 L 77.26,115.68 L 77.00,117.38 L 77.00,117.84 L 76.56,118.74 L 75.50,119.64 L 75.09,119.80 L 74.44,120.57 L 74.00,121.99 L 74.00,122.48 L 73.30,123.71 L 71.61,125.33 L 71.23,125.59 L 70.51,126.32 L 70.16,126.72 L 69.54,127.73 L 69.24,128.27 L 68.71,129.54 L 68.05,131.70 L 67.73,133.02 L 66.81,135.82 L 66.58,136.49 L 66.12,137.65 L 65.48,139.00 L 65.29,139.34 L 64.96,139.71 L 64.81,139.84 L 64.55,139.83 L 64.43,139.78 L 64.25,139.44 L 64.16,139.23 L 64.04,138.59 L 63.93,137.88 L 63.90,135.76 L 63.91,134.61 L 64.09,131.83 L 64.33,128.96 L 65.32,122.64 L 65.61,121.12 L 66.28,118.35 L 67.41,114.91 L 67.55,114.59 L 67.24,113.95 L 67.10,113.78 L 66.62,113.42 L 66.34,113.23 L 65.56,112.82 L 65.13,112.61 L 64.01,112.13 L 63.41,111.88 L 61.91,111.30 L 61.11,111.01 L 59.19,110.32 L 55.79,109.15 L 54.10,108.58 L 50.93,107.53 L 49.41,107.03 L 46.79,106.21 L 45.57,105.83 L 43.79,105.31 L 43.41,105.21 L 42.86,105.07 L 42.45,105.00 L 42.53,105.00 L 43.02,105.08 L 43.56,105.21 L 43.93,105.32 L 45.65,105.81 L 46.82,106.17 L 49.33,106.97 L 50.78,107.45 L 53.78,108.45 L 55.38,109.00 L 60.01,110.55 L 62.84,111.46 L 64.03,111.82 L 66.24,112.48 L 67.02,112.68 L 67.73,112.86 L 67.99,112.92 L 68.43,113.00 L 68.54,113.00 L 69.26,112.74 L 69.80,112.34 L 70.07,112.05 L 71.16,110.64 L 71.57,109.75 L 72.40,108.11 L 73.12,106.84 L 73.54,106.15 L 75.39,103.25 L 76.46,101.73 L 78.65,98.69 L 79.74,97.31 L 81.89,94.67 L 82.82,93.70 L 84.42,92.24 L 85.92,91.02 L 86.82,90.34 L 90.72,87.49 L 92.71,86.20 L 95.51,84.25 L 97.15,83.00 L 97.81,82.44 L 98.99,81.37 L 99.35,80.95 L 99.91,80.21 L 99.91,80.00 L 99.71,79.54 L 99.39,79.08 L 99.15,78.79 L 97.98,77.45 L 97.12,76.59 L 95.25,74.76 L 94.12,73.72 L 94.07,73.67 M 38.65,112.93 L 37.68,116.25 L 37.47,117.03 L 37.18,118.39 L 37.00,119.96 L 37.19,118.33 L 37.48,116.95 L 37.68,116.17 L 38.67,112.84 L 39.14,111.56 M 90.84,52.57 L 89.70,53.61 L 87.63,55.50 L 86.64,56.41 L 84.94,58.00 L 84.14,58.75 L 82.89,59.98 L 82.32,60.54 L 81.60,61.32 L 81.19,61.93 L 81.22,61.99 L 81.46,62.28 L 81.61,62.44 L 82.07,62.92 L 82.59,63.43 L 84.18,64.91 L 85.04,65.71 L 87.15,67.61 L 87.66,68.07 L 86.82,67.34 L 84.68,65.43 L 83.82,64.64 L 82.27,63.19 L 81.79,62.69 L 81.36,62.25 L 81.24,62.09 L 81.04,61.84 L 81.04,61.79 L 81.32,61.31 L 81.84,60.72 L 82.32,60.26 L 83.42,59.20 L 84.23,58.45 L 85.09,57.66 L 85.60,57.21 L 86.65,56.26 L 87.26,55.72 L 88.53,54.58 L 89.25,53.95 L 90.75,52.62 L 91.59,51.88 L 92.53,51.05 M 124.69,23.69 L 124.25,23.99 L 122.99,24.95 L 122.30,25.49 L 120.60,26.86 L 119.69,27.59 L 117.62,29.30 L 116.55,30.20 L 114.19,32.18 L 113.98,32.36 L 114.39,32.00 L 118.30,28.67 L 120.70,26.70 L 121.71,25.90 L 123.59,24.45 L 124.25,23.98 L 124.86,23.55 L 125.08,23.42 L 125.24,23.33 M 125.46,23.20 L 125.46,23.20 L 125.56,23.18 Z" fill="rgb(191,173,146)"/>
</g>
</svg>