<?xml version="1.0" encoding="utf-8"?>
<!DOCTYPE svg PUBLIC "-//W3C//DTD SVG 1.0//EN" "http://www.w3.org/TR/2001/REC-SVG-20010904/DTD/svg10.dtd">
<svg version="1.0" xmlns="http://www.w3.org/2000/svg" width="205px" height="233px" viewBox="0 0 205 233" preserveAspectRatio="xMidYMid meet">
 <g fill="#fbfefe">
  <path d="M174 97.1 c0 -5.9 0.8 -7.1 4.6 -7.1 3.7 0 4.1 1.2 2.8 7.9 -0.6 2.7 -1 3.1 -4 3.1 -3.3 0 -3.4 -0.1 -3.4 -3.9z"/>
  <path d="M28.9 80.8 c-0.9 -2.9 -1.4 -8.9 -1.4 -17.9 l0 -13.5 3.8 -7.6 c4.1 -8.4 9.3 -13.7 16.5 -17 4.9 -2.2 16.7 -3.4 23.6 -2.4 4.4 0.7 4.6 0.9 4.6 4.1 0 2.7 -0.4 3.4 -2.2 3.7 -2.1 0.3 -2.4 1 -3 9.3 -0.8 10.3 -2.2 14.8 -6.5 20.9 -5.3 7.6 -12.5 11.6 -20.5 11.6 -6.8 0 -7.9 1.2 -7.2 7.5 l0.7 5.5 -3.5 0 c-3.2 0 -3.6 -0.3 -4.9 -4.2z"/>
  <path d="M168.9 30.8 c-1.3 -1.8 -2.9 -3.7 -3.6 -4.1 -0.8 -0.5 -1.3 -2.7 -1.3 -5.3 l0 -4.5 3.7 0.3 c2.8 0.2 4.1 0.9 4.9 2.7 0.7 1.3 1.6 2.6 2.1 3 1.7 1.2 3.3 5.2 3.3 8.1 0 2.8 -0.3 3 -3.4 3 -2.8 0 -3.9 -0.7 -5.7 -3.2z"/>
 </g>

 <g fill="#f0ac63">
  <path d="M61.6 207.4 c-0.9 -0.8 -1.6 -2.4 -1.6 -3.4 0 -1 -0.3 -2.7 -0.7 -3.7 -0.4 -1.1 0.4 -0.6 2.1 1.2 1.5 1.7 2.4 2.3 2 1.5 -1 -1.7 -1.2 -32 -0.3 -32 0.3 0 0.9 -3.5 1.3 -7.7 1.1 -11.7 3.4 -20.9 7.6 -29.9 7 -15.1 14.7 -20.8 30.9 -22.4 9.9 -1.1 19.6 -4.7 24.1 -9.2 14.7 -14.5 20.4 -23 23.9 -35.8 2.2 -8 2.9 -23.4 1.1 -24.5 -0.6 -0.4 -0.8 -1 -0.5 -1.4 0.6 -1.2 -5.3 -13.1 -6.5 -13.1 -0.5 0 -1 -0.4 -1 -1 0 -2.1 6.7 -0.9 11.1 1.8 8.3 5.3 14.8 15.8 15.7 25.4 l0.5 4.8 -4.7 0 c-3.5 0 -4.9 0.5 -5.8 2 -0.7 1.1 -1.8 2 -2.4 2 -0.6 0 -2.4 3.5 -3.9 7.8 -3.3 9.4 -6.4 15.6 -12 24.2 -3.4 5.1 -4.4 7.8 -5 12.8 -0.4 3.4 -1.1 6.2 -1.6 6.2 -0.5 0 -0.9 0.8 -0.9 1.8 0 0.9 -0.8 2.2 -1.7 2.8 -1 0.6 -2.7 3.7 -3.7 6.8 -1.1 3.1 -2.5 5.6 -3.1 5.6 -1.2 0 -2.5 6.4 -2.5 12.6 0 5.2 -0.9 6.4 -4.6 6.4 -2.9 0 -3.4 -0.3 -3.4 -2.4 0 -1.4 -0.7 -3.1 -1.5 -4 -0.8 -0.8 -1.5 -2.6 -1.5 -4 0 -1.4 -0.4 -2.6 -1 -2.6 -0.5 0 -1 -1 -1 -2.3 0 -1.2 -0.8 -2.7 -1.9 -3.2 -1 -0.6 -3.3 -1.8 -5 -2.8 -3.7 -2.1 -5.8 -1.6 -10.2 2 -6.4 5.4 -9.3 15 -15.4 50.1 -4.5 26.2 -4.5 26.1 -6.9 27.7 -2.7 2 -8.1 1.9 -10 -0.1z"/>
 </g>
 <g fill="#eb9c52">
  <path d="M119.7 176.3 c-0.3 -1 -0.8 -4 -1.2 -6.8 -2 -16.3 -5.7 -32.1 -8.2 -36 -0.7 -1.1 -1.3 -3.2 -1.3 -4.8 0 -2.4 0.3 -2.7 1.4 -1.8 0.7 0.6 2.2 0.8 3.2 0.5 1.1 -0.4 1.6 -0.4 1.2 0.1 -0.4 0.4 -0.3 1.4 0.3 2.1 0.6 0.8 1.2 3.1 1.2 5.3 0.1 2.1 0.5 3.7 0.9 3.5 0.4 -0.3 1.1 1.4 1.4 3.6 0.4 2.7 1 3.7 1.5 2.9 0.4 -0.7 0.5 -1.7 0.2 -2.2 -0.9 -1.5 -1 -5.7 -0.1 -5.7 0.5 0 0.4 -0.9 -0.2 -1.9 -1.4 -2.7 -1.3 -3.1 0.6 -2.4 1.2 0.4 1.4 0 0.8 -2.1 -0.5 -2.2 -0.3 -2.8 1.3 -3.2 1.1 -0.3 2.6 -2.3 3.5 -4.9 1.6 -4.1 1.5 -4.3 0 -3.8 -0.9 0.3 0 -0.7 2 -2.3 4 -3.1 4.7 -4.4 2.4 -4.4 -0.8 0 -1.6 -0.7 -2 -1.5 -0.4 -1.2 -0.2 -1.3 1.2 -0.6 1 0.5 2.3 0.7 2.9 0.3 1.4 -1 2.2 -7.1 0.9 -7.6 -0.7 -0.3 -0.6 -0.5 0.2 -0.5 0.6 -0.1 1.2 -1 1.2 -2.2 0 -1.1 2 -5 4.4 -8.7 5.8 -9 7.4 -12.1 11.7 -23.2 2.2 -5.8 4.1 -9.4 4.9 -9.2 0.8 0.2 1 -0.3 0.7 -1.2 -0.4 -0.9 -0.1 -1.5 0.6 -1.3 0.7 0.1 1.1 -0.2 1 -0.8 -0.1 -0.6 2 -1 4.8 -1 4.2 0 4.8 -0.2 4.3 -1.7 -0.9 -2.9 2.5 -2.2 3.6 0.8 1.1 2.9 1.3 13.8 0.4 20.8 -0.6 4.4 -0.8 4.6 -4 4.6 -2.8 0 -3.5 0.4 -4 2.8 -0.8 3.1 -4.6 11.5 -6.1 13.4 -1.8 2.4 -5.1 12.3 -5.8 17.3 -0.4 2.7 -1.5 6.1 -2.4 7.5 -2.6 3.8 -4.1 7.8 -4.1 10.7 0 2.8 -8.4 22.9 -10.6 25.4 -0.8 0.8 -1.4 2.1 -1.4 2.7 0 0.7 -0.4 2 -0.9 3 -0.6 0.9 -1.7 5 -2.6 9 l-1.7 7.2 -3.8 0 c-2.8 0 -4 -0.5 -4.3 -1.7z"/>
  <path d="M129.6 105.1 c-0.3 -0.5 0 -1.1 0.8 -1.4 1.5 -0.6 2.6 0.1 2.6 1.5 0 1.1 -2.7 1 -3.4 -0.1z"/>
 </g>
 <g fill="#e58e46">
  <path d="M121.2 187 c-1.5 -8.6 -1.5 -15 -0.2 -15 0.6 0 1.3 0.7 1.6 1.5 0.4 0.8 1 1.5 1.4 1.5 0.8 0 2.9 -7.6 3.4 -12.5 0.2 -1.4 0.8 -3.1 1.5 -3.8 0.6 -0.6 1.1 -1.7 1.1 -2.4 0 -0.8 1 -2.7 2.1 -4.2 1.2 -1.6 1.8 -3.4 1.5 -4 -0.4 -0.6 -0.2 -1.1 0.4 -1.1 0.7 0 0.9 -0.7 0.6 -1.6 -0.3 -0.8 -0.2 -1.3 0.3 -1 1.1 0.7 7.4 -14.2 6.7 -16 -0.6 -1.5 1.7 -7.2 4.5 -11.4 0.9 -1.4 2 -4.8 2.4 -7.5 0.7 -5 4 -14.9 5.8 -17.3 1.4 -1.8 5.2 -10.2 6 -13.2 0.8 -3 4.5 -7.4 7 -8.3 1 -0.4 1.7 -1.2 1.6 -1.9 -0.4 -3.1 0.2 -4.8 1.6 -4.8 1.1 0 1.5 1.1 1.5 4.3 -0.1 8.1 -3 18.2 -9 30.7 -4.5 9.3 -6 13.6 -6 16.8 0 2.9 -0.5 4.5 -1.5 4.8 -1.2 0.5 -1.5 2.7 -1.5 11.5 0 6 -0.4 11.7 -0.9 12.7 -0.5 0.9 -1.5 3 -2.2 4.5 -0.7 1.5 -2.8 4.3 -4.6 6.2 -4.4 4.5 -7.3 9.5 -7.3 12.5 0 1.5 -0.4 3 -0.9 3.5 -0.5 0.6 -1.4 2.8 -2.1 5 -0.7 2.2 -2.6 6.3 -4.1 9.1 -1.6 2.8 -2.9 5.8 -2.9 6.7 0 1.3 -0.9 1.7 -3.3 1.7 l-3.3 0 -1.2 -7z"/>
 </g>
 <g fill="#e2843e">
  <path d="M124.6 203.8 c-3.1 -8.5 -4.8 -24.8 -2.6 -24.8 1.1 0 3.4 4 2.6 4.7 -0.2 0.3 0.1 1.1 0.7 1.8 0.9 1 1.7 0.3 3.8 -3.4 1.4 -2.5 3.2 -6.4 3.9 -8.6 0.7 -2.2 1.6 -4.4 2.1 -5 0.5 -0.5 0.9 -2 0.9 -3.3 0 -2.6 3.8 -10.2 5.2 -10.2 0.4 0 0.4 -0.7 0.1 -1.7 -0.4 -1 -0.2 -1.4 0.5 -0.9 1.3 0.8 4.3 -2.3 6.2 -6.2 0.7 -1.5 1.6 -3.5 2.1 -4.4 0.5 -1 0.9 -6.7 0.9 -12.7 0 -7.8 0.4 -11.1 1.2 -11.3 0.7 -0.3 1.3 -1.1 1.4 -1.9 0 -0.8 0.2 -2.2 0.2 -3.1 0.1 -1 0.9 -1.8 1.8 -1.8 1.4 0 1.5 2.8 1.2 27.3 -0.4 25.5 -0.6 27.8 -3.1 37.2 -3.1 11.6 -10.5 27.4 -14.3 30.4 -1.9 1.5 -4.1 2.1 -8 2.1 l-5.2 0 -1.6 -4.2z"/>
 </g>
 <g fill="#002530">
  <path d="M58.3 219 c-12.2 -7 -21.8 -26.9 -27 -56 -1 -5.2 -1.7 -16.8 -1.9 -30.1 l-0.4 -21.6 -4.9 -10.4 c-6.5 -13.8 -8.1 -18.6 -9.4 -29.5 -0.9 -7.7 -0.8 -10.5 0.6 -17.5 3.5 -17.3 14 -32.3 26.9 -38.7 18.2 -8.8 33.1 -7.9 50.4 3.3 3.8 2.4 7.3 4.1 7.9 3.7 0.5 -0.4 3.5 -2.4 6.6 -4.4 10.7 -7 24 -10 35.4 -7.9 26.8 5 45.3 32.9 41.5 62.8 -1.3 9.8 -3 15.2 -9.3 28.3 l-4.9 10.5 -0.3 23 c-0.4 31.6 -3.4 47.5 -12.9 66.2 -10.1 20 -27.7 27.5 -38.3 16.1 -4.6 -4.9 -5.6 -8.6 -11.8 -45.3 -4.1 -24.4 -5.8 -31.5 -7.5 -31.5 -0.9 0 -4.5 16.8 -9 43 -4.7 27.2 -6.8 33 -13.5 36.7 -5.8 3.3 -11.7 3 -18.2 -0.7z m12.9 -18.6 c0.4 -1.6 2.2 -11 3.8 -20.9 5.7 -33.7 9 -45.5 14.4 -51.3 5 -5.6 12.9 -6.8 18.7 -2.9 6.8 4.4 9.3 13.1 14.9 51 3.4 23.4 5 28.7 8.5 28.7 1.2 0 3.4 -0.9 4.9 -2.1 3.8 -3 11.2 -18.8 14.3 -30.4 2.4 -9.2 2.6 -12.1 3.2 -38 l0.7 -28 5.7 -11.5 c8.3 -16.7 10.4 -28.9 7.2 -41.5 -3.2 -12 -9.2 -19.7 -19.7 -25.2 -4.4 -2.2 -6.6 -2.7 -13.3 -2.7 -10.1 -0.1 -14.7 1.6 -25.6 9.5 -4.5 3.2 -8.7 5.9 -9.3 5.9 -1.8 0 -8.1 -3.6 -13.8 -8 -7.2 -5.5 -17 -8.5 -25 -7.6 -12.2 1.2 -20.6 7.4 -26.5 19.4 -3.7 7.4 -3.8 7.9 -3.8 18.7 0 12.6 0.5 14.4 8.3 31 l5.7 12 0.1 19.5 c0.1 29.5 3.9 50.9 12 67.7 1.8 3.9 4.8 8.3 6.5 9.7 2.8 2.4 3.4 2.5 5.2 1.3 1.2 -0.8 2.5 -2.7 2.9 -4.3z"/>
 </g>
</svg>