<?xml version="1.0" encoding="utf-8"?>
<!DOCTYPE svg PUBLIC "-//W3C//DTD SVG 1.0//EN" "http://www.w3.org/TR/2001/REC-SVG-20010904/DTD/svg10.dtd">
<svg version="1.0" xmlns="http://www.w3.org/2000/svg" width="207px" height="206px" viewBox="0 0 207 206" preserveAspectRatio="xMidYMid meet">
 <g fill="#f7fafa">
  <path d="M76 163 c0 -5.1 1.9 -9.7 5.5 -13.2 2.6 -2.6 3.4 -2.8 11.1 -2.8 l8.4 0 0 3.3 c0 2.6 -0.6 3.6 -2.5 4.5 -1.4 0.7 -3.2 1.2 -4 1.2 -0.8 0 -2.9 1.4 -4.7 3 -1.8 1.7 -3.8 3 -4.5 3 -0.7 0 -1.5 1.1 -1.9 2.5 -0.5 2.1 -1.2 2.5 -4 2.5 -3.3 0 -3.4 -0.1 -3.4 -4z"/>
  <path d="M20.5 114.6 c-2.1 -5.1 -1.9 -17.1 0.4 -22.1 2.2 -4.7 6.4 -8.9 10.4 -10.4 3 -1.2 19.5 -1.5 22.1 -0.5 1 0.4 1.6 1.8 1.6 4 0 3 -0.3 3.4 -2.5 3.4 -8.6 0 -20.8 12.8 -22.3 23.3 -0.7 5.1 -0.8 5.2 -4.5 5.5 -3.5 0.3 -3.9 0.1 -5.2 -3.2z"/>
  <path d="M79.4 109.5 c-0.3 -1.4 -1 -2.5 -1.5 -2.5 -1.8 0 -0.8 -5.8 2 -11.7 3 -6.1 7.7 -10.8 11.6 -11.5 1.5 -0.2 2.1 -1.2 2.3 -4.3 0.5 -7.9 0.9 -8.5 5.2 -8.5 l4 0 0 5.4 c0 3.5 0.5 6 1.5 7 1 0.9 1.5 3.4 1.5 6.9 0 7.6 -3.3 13.6 -8.8 16.1 -2.7 1.3 -4.2 2.6 -4.2 3.8 0 1.6 -0.9 1.8 -6.5 1.8 -6.1 0 -6.5 -0.2 -7.1 -2.5z"/>
  <path d="M75 41.1 c0 -8.7 1 -11.5 6.3 -16.9 4.8 -4.9 8.5 -6.2 18.5 -6.2 l7.2 0 0 3.5 c0 3.2 -0.2 3.5 -3.1 3.5 -2.3 0 -4.4 1.3 -8.8 5.5 -3.2 3 -6.6 7.2 -7.7 9.3 -3.1 6.1 -5.4 8.2 -9.1 8.2 l-3.3 0 0 -6.9z"/>
 </g>
 <g fill="#eda458">
  <path d="M80.6 185.8 c-2.9 -3.4 -3.6 -5 -3.6 -8.5 0 -2.4 0.5 -4.3 1 -4.3 0.6 0 1 0.7 1 1.5 0 0.8 0.5 1.5 1 1.5 0.6 0 1 -0.7 1 -1.6 0 -0.9 1.4 -3.9 3 -6.6 1.7 -2.7 2.8 -5.3 2.5 -5.9 -0.4 -0.5 0.1 -1.2 1 -1.5 0.9 -0.4 2.3 -2 3.1 -3.6 0.8 -1.6 2.9 -3.8 4.7 -4.8 l3.2 -2 -4 0 c-3.5 -0.1 -3.7 -0.2 -2 -1.2 1.1 -0.6 2.4 -1.7 2.8 -2.5 0.5 -0.9 3 -1.3 7.6 -1.3 5.9 0 7.3 0.4 10.3 2.8 6.4 4.9 8.2 8.7 8.6 18 l0.4 8.2 -3.6 0 c-3.5 0 -3.6 -0.1 -3.6 -3.5 0 -4.9 -2.8 -11.5 -4 -9.5 -0.7 1.1 -3.5 1.6 -10 2 l-9.1 0.5 3.5 5.5 c4.5 7 4.9 12.8 1.1 15.8 -1.4 1.1 -2.5 2.4 -2.5 3 0 1.3 -2.5 2.2 -6.5 2.2 -2.7 0 -4 -0.8 -6.9 -4.2z"/>
  <path d="M29.5 124.8 c-4.6 -2.5 -7.5 -6.2 -7.5 -9.5 0 -3.5 1.4 -4.4 2.4 -1.7 0.8 2.2 1.9 1.1 2.2 -2.3 0.6 -5.5 1.1 -6.9 4.5 -11.8 5.9 -8.5 12.7 -13.5 18.5 -13.5 3.9 0 2.1 -1.2 -2.9 -2.1 -3.7 -0.6 -3.3 -0.7 3 -0.8 7 -0.1 7.4 0 10.7 3.3 1.8 1.9 4 5.4 4.8 7.8 l1.5 4.3 7.6 0.3 c7.8 0.3 9.3 1.2 6.5 4 -0.9 0.9 -0.9 1.2 0 1.2 2.2 0 1.3 2.9 -1 3.4 -1.3 0.3 -6.6 0.7 -11.9 0.8 -6.9 0.3 -10.3 0.9 -12.2 2.1 -1.5 0.9 -3.8 1.7 -5.2 1.7 -2.1 0 -2.5 0.5 -2.5 3 0 1.7 -0.4 3 -0.9 3 -0.4 0 -2.6 1.8 -4.7 4 -3.1 3.2 -4.6 4 -7.4 4 -1.9 0 -4.4 -0.6 -5.5 -1.2z m17.3 -24.2 l-0.3 -3.5 -5.2 3.2 c-2.9 1.8 -5.3 3.4 -5.3 3.7 0 0.3 2.4 1.7 5.3 3.2 l5.2 2.5 0.3 -2.8 c0.2 -1.6 0.2 -4.4 0 -6.3z"/>
  <path d="M137 121 c-3.6 -3.6 -4 -4.5 -4 -8.7 0.1 -4.5 0.2 -4.6 1.4 -2.5 l1.2 2.3 2.6 -3.8 c1.4 -2.1 3.1 -5.5 3.7 -7.5 0.7 -2 1.9 -4.2 2.7 -4.8 0.7 -0.7 1.4 -1.8 1.4 -2.5 0 -0.6 2.2 -2.4 5 -3.9 6 -3.3 7 -4.6 3.4 -4.6 -2.2 0 -2.5 -0.2 -1.4 -1.5 0.9 -1 3.2 -1.5 7.6 -1.5 5.9 0 6.7 0.3 10.4 3.6 4.4 4 7 10.7 7 18.1 0 4.2 -0.1 4.3 -3.4 4.3 -2.8 0 -3.5 -0.4 -4 -2.5 -0.4 -1.4 -1.5 -3.9 -2.6 -5.7 l-1.9 -3.1 -0.6 2.6 c-0.6 2.2 -1.3 2.7 -4 2.7 -1.7 0 -5.3 -1.1 -7.9 -2.5 l-4.6 -2.4 0 7.9 c0 7.3 0.2 8 2 8 3.1 0 2.6 5.1 -0.9 8.9 -4.2 4.5 -8 4.2 -13.1 -0.9z"/>
  <path d="M81.7 59.9 c-3 -2.4 -3.7 -3.7 -3.7 -6.5 0 -3.5 1.3 -4.6 2.4 -1.8 0.3 0.8 1 1.2 1.6 0.9 0.6 -0.4 0.8 -1 0.5 -1.5 -0.3 -0.4 0.8 -4.1 2.5 -8.1 2.8 -6.9 8.1 -13.9 10.5 -13.9 0.6 0 2.4 -1.3 3.9 -2.9 1.6 -1.7 4 -3.1 5.5 -3.3 2.2 -0.3 1.8 -0.6 -1.9 -1.5 l-4.5 -1.1 6.7 -0.1 c5.9 -0.1 7 0.2 9.9 2.6 4.9 4.2 6.9 9.5 6.9 19.1 l0 8.2 -3.5 0 c-1.9 0 -3.5 -0.4 -3.5 -0.8 0 -0.4 -1.6 -0.6 -3.5 -0.4 -1.9 0.2 -4.2 -0.1 -5 -0.8 -1.3 -1.1 -1.5 -0.8 -1.5 1.8 0 2.2 -0.5 3.1 -2.2 3.6 -1.3 0.3 -3.5 2.6 -5 5.1 -2.6 4.3 -2.9 4.5 -7.5 4.5 -3.9 0 -5.6 -0.6 -8.6 -3.1z m20.7 -19.1 c-1.5 -2.9 -2.8 -5.5 -3 -5.7 -0.5 -0.6 -2.6 2.3 -5.4 7.2 l-2.1 3.7 6.6 0 6.5 0 -2.6 -5.2z"/>
 </g>
 <g fill="#ec9749">
  <path d="M86 188.4 c0 -1.4 0.4 -2.3 0.9 -2 1.2 0.8 4.1 -0.4 4.1 -1.6 0 -0.6 1.2 -1.9 2.6 -3 1.6 -1.4 2.4 -2.7 2.1 -3.9 -0.4 -1.5 0 -1.9 1.9 -1.9 2.2 0 2.4 0.4 2.4 4.3 0 5.8 -4.7 10.7 -10.3 10.7 -3.3 0 -3.7 -0.3 -3.7 -2.6z"/>
  <path d="M108 164.5 c0 -0.9 -0.9 -1.5 -2.5 -1.5 -1.6 0 -2.5 -0.6 -2.5 -1.5 0 -0.8 0.7 -1.5 1.5 -1.5 0.8 0 2.5 -1.1 3.7 -2.5 3.2 -3.4 6.2 -2.4 8.2 2.6 0.9 2.2 1.6 4.4 1.6 4.9 0 0.6 -2.2 1 -5 1 -3.8 0 -5 -0.4 -5 -1.5z"/>
  <path d="M119.2 164.7 c-0.3 -2.8 -3 -8.1 -5.4 -10.7 l-2.2 -2.3 2.5 0.6 c1.3 0.4 2.7 0.7 3 0.7 1.4 0 3 6 2.6 9.6 -0.2 2.2 -0.4 3.1 -0.5 2.1z"/>
  <path d="M33.7 126.3 c-1.3 -1.2 -0.7 -4.3 0.6 -3.7 0.7 0.2 2.5 -0.8 3.9 -2.4 1.4 -1.6 3.6 -3.7 4.9 -4.6 2.3 -1.6 2.3 -1.6 0.4 -3.1 -1.9 -1.4 -1.9 -1.4 0.8 -1.5 2.2 0 2.7 -0.5 2.7 -2.4 0 -1.3 0.7 -2.9 1.5 -3.6 1.3 -1.1 1.5 -0.8 1.5 1.5 0 2.3 0.2 2.5 1.4 1.5 2.3 -1.8 10.8 -3.8 14.4 -3.2 2.3 0.3 3.2 1 3.2 2.3 0 1 -0.5 2.1 -1 2.4 -0.6 0.4 -2 2.6 -3.1 5 -1.8 3.8 -2.6 4.4 -6.1 5 -2.5 0.5 -5.4 2 -7.8 4.1 -3.4 3.1 -4.3 3.4 -10.2 3.4 -3.6 0 -6.8 -0.3 -7.1 -0.7z"/>
  <path d="M142.7 125.3 c-0.4 -0.3 -0.7 -1.7 -0.7 -3.1 0 -1.8 0.3 -2.2 1.3 -1.4 0.9 0.7 1.9 0.2 3.8 -1.9 2.4 -2.6 2.5 -2.9 0.7 -2.9 -1.4 0 -1.9 -0.6 -1.6 -2.2 0.4 -2.9 7.8 -6.8 13 -6.8 3.7 0 3.8 0.1 3.8 3.4 0 2.1 -0.6 3.6 -1.5 4 -0.8 0.3 -1.5 1.1 -1.5 1.9 0 0.7 -1.8 2.3 -4 3.6 -2.2 1.2 -4.5 3.1 -5 4.2 -1.1 1.9 -6.8 2.8 -8.3 1.2z"/>
  <path d="M162 104.6 c-3.3 -1.8 -4.6 -3.1 -4.8 -5 -0.3 -2.5 -0.2 -2.5 2.5 -1.5 1.5 0.5 2.4 0.7 2.1 0.3 -1.1 -1.1 3.1 -6.4 5.1 -6.4 1.7 0 4 3.6 6.7 10.5 0.7 1.7 1.3 2.3 1.3 1.4 0.2 -2.8 -2.7 -11 -4.5 -13 -1.4 -1.5 -1.4 -1.9 -0.3 -1.9 2.1 0 6.9 10 6.9 14.3 l0 3.7 -5.3 0 c-3.6 0 -6.6 -0.7 -9.7 -2.4z"/>
  <path d="M89.8 64.4 c-2.6 -0.8 -2.3 -4.4 0.2 -4.4 1.4 0 3 -1.5 4.8 -4.5 1.5 -2.4 3.8 -4.9 5.2 -5.4 2.2 -0.8 2 -1 -2 -1.1 l-4.5 -0.2 3 -1.3 c1.7 -0.8 4.5 -1.4 6.3 -1.5 2.5 0 3.2 -0.4 3.2 -2 0 -2.5 1.2 -2.6 2.8 0 0.9 1.6 1.7 1.8 3.6 1 1.3 -0.5 2.7 -0.6 3 -0.3 0.3 0.4 0.6 -0.2 0.7 -1.3 0 -1.4 0.4 -1.1 1.4 1.1 l1.4 3 0.1 -4.5 c0 -3.3 0.3 -4.1 1 -3 0.5 0.8 1 4.1 1 7.3 0 5.7 -0.1 6 -5.4 11.5 l-5.4 5.6 -9.3 0.2 c-5.2 0.2 -10.2 0 -11.1 -0.2z"/>
 </g>
 <g fill="#57a2bb">
  <path d="M90 148.2 c0 -1.1 0.9 -2.7 2 -3.7 1.5 -1.4 2 -3.3 2.2 -9.4 l0.3 -7.6 4.8 -0.3 4.7 -0.3 0 8 c0 7.1 0.2 8 2 8.6 1.2 0.4 2 1.5 2 2.8 0 2 -0.4 2.2 -4.1 1.9 -2.2 -0.3 -4.6 0.1 -5.2 0.7 -0.6 0.6 -2.8 1.1 -4.9 1.1 -3 0 -3.8 -0.4 -3.8 -1.8z"/>
  <path d="M86.3 120.8 c-4.2 -3 -6.3 -6.8 -6.3 -11.1 0 -3.9 1.5 -5.8 2.4 -3 0.4 1.3 1.6 1.8 4.1 1.8 2.5 0 3.4 -0.4 3 -1.3 -0.3 -0.8 1.2 -2.1 3.9 -3.3 7.3 -3.2 12 -13.6 8 -17.6 -1.7 -1.7 -1.6 -1.8 2.5 -2.1 5.8 -0.4 8.4 1.6 11.8 8.8 l2.8 6 7.5 0 7.5 0 0.2 4.3 c0.1 2.3 0.5 5.2 0.8 6.5 0.4 1.8 0.1 2.2 -2 2.2 -1.8 0 -2.5 -0.5 -2.5 -2 0 -1.7 -0.7 -2 -5.3 -2 -5.3 0 -7.7 1.2 -7.7 3.9 0 2.2 -4.8 7.9 -8 9.6 -1.9 1 -5.8 1.5 -11.2 1.5 -7 0 -8.8 -0.4 -11.5 -2.2z"/>
 </g>
 <g fill="#e18b45">
  <path d="M90.8 192.3 c-2.2 -0.3 -2.8 -1 -2.8 -2.9 0 -1.6 0.4 -2.3 1.1 -1.8 0.6 0.3 2.6 -0.9 4.5 -2.7 2.6 -2.5 3.4 -3.9 2.9 -5.6 -0.3 -1.3 -0.1 -2.3 0.5 -2.3 0.6 0 2.9 -3.8 5.2 -8.5 3.5 -6.9 4.7 -8.5 6.5 -8.5 1.5 0 2.3 0.6 2.3 1.6 0 1.3 0.3 1.4 1.4 0.5 2.5 -2.1 5.6 0.7 5.8 5.4 l0.1 4 0.4 -3.8 c0.3 -2.2 0 -5.2 -0.6 -6.8 -0.9 -2.6 -0.8 -2.8 0.9 -1.7 1.5 0.9 2 3 2.5 9.4 0.7 7.8 0.6 8.5 -2.1 13.4 -4.5 8.2 -7.8 10.2 -17.6 10.5 -4.6 0.2 -9.5 0.1 -11 -0.2z"/>
  <path d="M42 125.5 c0 -0.8 0.5 -1.5 1.1 -1.5 0.6 0 2.8 -1.5 4.9 -3.4 2.1 -1.9 5.3 -3.6 7.5 -4 2.2 -0.4 4.5 -1.5 5.2 -2.4 1.1 -1.5 1.2 -1.2 1.3 1.8 0 2.9 -0.8 4.4 -3.8 7.3 -3.5 3.5 -4.2 3.7 -10 3.7 -4.8 0 -6.2 -0.3 -6.2 -1.5z"/>
  <path d="M145.3 126.3 c-0.7 -0.2 -1.3 -1.4 -1.3 -2.5 0 -1.4 0.5 -1.8 1.5 -1.4 0.8 0.3 1.9 -0.3 2.5 -1.4 0.5 -1 2.8 -2.9 5 -4.1 2.1 -1.2 3.7 -2.6 3.4 -3 -0.2 -0.4 0.6 -1.5 1.8 -2.3 2.8 -2 1.8 -2 -2.6 -0.2 l-3.3 1.4 1 -2.8 c1.4 -3.8 10.6 -8.4 14.1 -7 1.3 0.5 2.6 0.6 2.9 0.4 0.3 -0.3 1.5 0 2.8 0.6 2 1.1 2.1 1 1.7 -1.3 -0.4 -1.8 -0.1 -2.4 0.9 -2 1.6 0.6 1.8 10.8 0.3 14.7 -0.5 1.4 -2.8 4.6 -5.1 7.1 l-4.2 4.5 -10.1 -0.1 c-5.5 0 -10.7 -0.3 -11.3 -0.6z"/>
 </g>
 <g fill="#002d33">
  <path d="M77.2 187.5 c-0.7 -1.4 -1.2 -3.9 -1.2 -5.5 0 -2.3 0.4 -3 2 -3 2.2 0 11.2 8.8 10.4 10.1 -0.3 0.5 -2.7 0.9 -5.3 0.9 -4.2 0 -4.9 -0.3 -5.9 -2.5z"/>
  <path d="M31.3 167.1 c-1.1 -2.4 -2.6 -4.1 -3.8 -4.3 -1.4 -0.2 -2.1 -1.2 -2.3 -3.2 -0.2 -1.7 0 -2.6 0.7 -2.2 0.5 0.4 3.7 -2.1 6.9 -5.4 5.4 -5.4 6.4 -6 10.1 -6 3.2 0 4.4 0.5 5.7 2.5 2.4 3.6 1.2 6.4 -5.5 13.6 -4.3 4.7 -5.6 6.7 -4.9 7.7 0.8 0.9 0.3 1.2 -2 1.2 -2.6 0 -3.3 -0.6 -4.9 -3.9z"/>
  <path d="M29.2 136.9 c-7 -2.7 -15.4 -11 -19 -18.6 -2.3 -5 -2.7 -7.1 -2.7 -14.8 0 -7.7 0.4 -9.8 2.7 -14.8 3.4 -7.2 5.8 -7.7 5.8 -1.2 0 2.5 -0.7 6.2 -1.6 8.3 -2.7 6.4 -2.3 14 1 20.5 6 11.9 17.3 18.7 31.1 18.7 5.7 0 7.5 0.3 7.5 1.4 0 3.3 -16.6 3.6 -24.8 0.5z"/>
  <path d="M160 126 c0 -1.3 0.7 -2 1.9 -2 2.8 0 10.9 -9.5 11.7 -13.6 0.5 -2.7 1.1 -3.4 3 -3.4 2.2 0 2.4 0.4 2.4 5.5 0 5.2 -0.3 5.8 -4.2 9.6 -4.8 4.5 -7.5 5.9 -11.9 5.9 -2.2 0 -2.9 -0.5 -2.9 -2z"/>
  <path d="M85.8 64.7 c-7.7 -3 -9.8 -5.1 -9.8 -9.9 0 -2.7 0.5 -4.1 1.7 -4.5 1 -0.4 1.9 -0.1 2.1 0.8 0.3 0.8 2.1 3 4.2 4.9 3.9 3.8 9.5 6 15.4 6 2.8 0 3.6 0.4 3.6 1.9 0 1.4 -1 2 -3.7 2.5 -5.5 0.9 -7.2 0.6 -13.5 -1.7z"/>
 </g>
 <g fill="#01232e">
  <path d="M90 203.4 c-10.6 -2.9 -19.1 -10.1 -23.9 -20.4 -3.4 -7.4 -3.6 -19.7 -0.2 -28.2 2.4 -6.3 8.7 -13.9 15.1 -18.3 l4.1 -2.8 -4.8 -4.3 c-5.2 -4.7 -8.6 -5.5 -10.2 -2.5 -1.4 2.5 -9.7 8.4 -14 9.9 -5.6 2 -19.2 1.5 -25.5 -0.9 -6.9 -2.5 -14.5 -9.2 -17.9 -15.8 -3.2 -6.2 -5.3 -16.7 -3.8 -18.5 0.6 -0.7 0.8 -1.6 0.5 -1.9 -0.4 -0.4 0.3 -3 1.5 -5.8 1.3 -2.8 2 -6.1 1.7 -7.2 -0.7 -2.6 4.5 -9.2 8.8 -11.3 1.7 -0.8 4.3 -2.1 5.7 -2.9 4.7 -2.6 15.1 -4.8 20.5 -4.2 8.3 0.9 18.3 6.8 23.4 13.8 l2.6 3.6 5.2 -5.7 5.2 -5.8 -3.5 -2.2 c-4.7 -2.9 -11.8 -11 -14.6 -16.7 -1.9 -4 -2.4 -6.4 -2.4 -13.8 0 -7.9 0.4 -9.8 2.9 -15.3 3.2 -7 9.5 -13.3 16.8 -17 3.9 -1.9 6.1 -2.2 15.8 -2.2 13.8 0 17.1 1.3 25.2 9.8 7.5 7.8 10.1 14.8 9.6 25.7 -0.3 5.7 -1.1 9.4 -2.7 12.7 -2.9 6 -9.3 13.2 -14.5 16.5 l-4 2.6 3.7 3.1 c2.1 1.7 4.6 4.4 5.5 5.9 l1.8 2.6 5 -5.7 c5.9 -6.6 11.8 -9.9 20.6 -11.3 11.4 -1.9 20.4 0.9 29 8.8 5.8 5.4 10.3 13.9 11.3 21.3 1.9 14 -7.5 31.7 -19.7 37 -3.7 1.7 -7.8 2.5 -13.8 2.8 -10.9 0.5 -17.7 -1.8 -25.4 -8.9 -3 -2.7 -6.2 -4.9 -7.3 -4.9 -2.4 0 -11.3 9.1 -9.5 9.7 2.1 0.8 9.4 7.2 12.4 11.1 10.9 13.6 11.1 30.2 0.7 44.6 -4.1 5.7 -10 10 -17.7 12.5 -7.1 2.4 -11.6 2.5 -19.2 0.5z m20.2 -16.5 c1.6 -1.2 4.2 -4.4 5.8 -7.2 3.5 -6.1 4.1 -14.6 1.4 -20.3 -2.1 -4.5 -7.7 -9.8 -12.5 -12 l-3.9 -1.7 0 -7.9 c0 -7 -0.2 -7.9 -1.7 -7.6 -1.5 0.3 -1.9 1.6 -2.1 7.8 -0.3 8.5 -2.5 12 -7.3 12 -3.4 0 -8.3 4.9 -10.5 10.7 -2.1 5.3 -1.5 12.6 1.4 18.1 2 3.9 2 4 0.1 3.5 -1.8 -0.5 -1.9 -0.3 -0.8 2 0.9 1.9 1.8 2.4 3.8 2.2 1.4 -0.2 3.5 0.2 4.6 0.8 6 3.2 16.9 3 21.7 -0.4z m61.2 -67.6 c3.1 -2.9 4.6 -5.1 4.6 -6.8 0 -1.4 -0.5 -2.5 -1.1 -2.5 -0.8 0 -0.9 -1.3 -0.5 -3.9 0.9 -6 -1.7 -13.2 -6.4 -17.5 -3.9 -3.5 -4.2 -3.6 -12 -3.6 -4.5 0 -9.5 0.6 -11.3 1.4 -4.1 1.7 -9.1 7.4 -10.7 12 l-1.2 3.6 -8.7 0 -8.8 0 -1.7 -4.5 c-2.2 -5.8 -6.7 -10.5 -9.9 -10.5 -3 0 -3.7 -1.6 -3.7 -8.1 0 -2.7 -0.4 -4.9 -1 -4.9 -1.1 0 -1.9 2.8 -2.2 8.5 -0.2 3.1 -0.7 4 -2.6 4.5 -3.9 0.9 -8.9 5.7 -10.8 10.4 l-1.9 4.6 -8.8 0 c-7.5 0 -8.9 -0.3 -9.4 -1.7 -3.8 -11.4 -9.8 -16.3 -19.9 -16.3 -7.4 0 -10.8 1.1 -14.8 4.8 -6.1 5.7 -8.2 15.4 -5.1 23 3.5 8.3 10.1 12.1 21.1 12.2 l7.1 0 4.6 -4.9 c2.5 -2.7 5.2 -6.4 6 -8.2 2 -4.9 3.3 -5.6 11.8 -6.2 l7.7 -0.7 1.1 4.3 c1.2 4.7 2.3 6.2 6.5 9.5 3.5 2.7 12.1 3 16.6 0.7 3.3 -1.7 8 -7.4 8 -9.7 0 -2.7 2.3 -3.6 10.5 -3.9 7.3 -0.4 8 -0.2 8.4 1.6 0.7 3.8 6.9 12.2 10.7 14.6 2.9 1.8 5.9 2.5 11.9 2.9 4.4 0.3 8.8 0.3 9.7 0 0.9 -0.3 3.7 -2.4 6.2 -4.7z m-59.5 -62.7 c5.2 -5 7.1 -9 7.1 -15.3 -0.1 -14.3 -12.7 -23.3 -27 -19.3 -4 1.1 -11.4 8.1 -12.9 12.3 -1.5 4 -1.4 11.1 0.3 15.1 1 2.5 1.1 3.7 0.3 4.5 -1.7 1.7 2.4 5.3 9.1 7.7 5.3 1.9 6.1 1.9 12.2 0.6 5.2 -1.1 7.3 -2.2 10.9 -5.6z"/>
  <path d="M92.3 171.8 c-3.4 -5.6 -6 -10.5 -5.7 -11 0.3 -0.4 5.9 -0.8 12.5 -0.8 l11.9 0 -5.5 11 c-3 6.1 -5.9 11 -6.3 11 -0.4 0 -3.5 -4.6 -6.9 -10.2z"/>
  <path d="M38.7 110.4 c-8.1 -4.2 -10.5 -5.9 -9.7 -6.8 1.6 -2 17.7 -11.6 19.4 -11.6 1.4 0 1.6 1.8 1.6 12 0 6.6 -0.1 12 -0.2 12 -0.2 -0.1 -5.2 -2.6 -11.1 -5.6z"/>
  <path d="M146 104 c0 -10.2 0.2 -12 1.6 -12 1.8 0 20.4 11.1 20.4 12.2 0 0.4 -4 2.8 -8.9 5.3 -4.9 2.4 -9.2 4.9 -9.6 5.5 -0.3 0.5 -1.3 1 -2.1 1 -1.1 0 -1.4 -2.2 -1.4 -12z"/>
  <path d="M91.1 39 c4.3 -6.9 6.7 -10 8 -10 1.4 0 3.2 2.7 6.9 10 l5 10 -13 0 -13 0 6.1 -10z"/>
  <path d="M170.5 182.7 c-9.3 -2.8 -17.2 -5.2 -17.4 -5.4 -0.3 -0.2 1.2 -2 3.2 -4.1 2 -2.1 3.7 -4.2 3.7 -4.8 0 -0.5 -2.5 -3.4 -5.6 -6.4 -6.9 -6.8 -7.9 -9.1 -5.9 -13.1 1.3 -2.5 2.1 -2.9 5.7 -2.9 3.9 0 4.8 0.6 10.5 6.2 l6.3 6.2 3.3 -3.2 c1.8 -1.8 3.9 -3.2 4.7 -3.2 1.1 0 2.6 4.6 5.4 16.8 2.2 9.2 4.1 17.3 4.4 18 0.6 1.6 1.1 1.7 -18.3 -4.1z"/>
  <path d="M7.2 184.8 c0.3 -0.7 2.7 -8.6 5.3 -17.5 2.6 -9 5.2 -16.3 5.7 -16.3 0.6 0 3.3 2 6 4.5 4.8 4.3 7.7 5.8 6.2 3.3 -0.4 -0.7 0.2 -0.5 1.4 0.6 1.2 1 2.1 2.1 2 2.5 -0.2 2 0.8 3.6 5.8 9 5.3 5.7 5.4 6.1 3.2 6.6 -1.3 0.3 -8.8 2.1 -16.8 4 -8 1.9 -15.6 3.7 -16.9 4 -1.7 0.4 -2.2 0.2 -1.9 -0.7z"/>
  <path d="M39.5 61.8 c-1.1 -0.6 -4.4 -3.3 -7.2 -6.1 l-5.3 -5.1 -4.5 4.4 c-2.4 2.4 -4.6 4.2 -4.8 3.9 -0.6 -0.7 -9.7 -32.3 -9.7 -33.6 0 -0.7 0.8 -1.3 1.8 -1.3 1.8 0 34.2 7.7 34.8 8.3 0.2 0.2 -1.4 2.1 -3.6 4.2 l-4 3.9 6.5 6.7 c3.6 3.7 6.5 7.6 6.5 8.7 0 2.9 -3.8 7.2 -6.3 7.2 -1.2 0 -3.1 -0.6 -4.2 -1.2z"/>
  <path d="M149.5 60.5 c-3.9 -3.8 -3.2 -6 4.2 -13.6 l6.7 -6.9 -3.9 -4 -3.8 -3.9 2.5 -1 c1.4 -0.5 4.5 -1.5 6.9 -2.1 2.4 -0.6 7.9 -2.2 12.2 -3.6 8.6 -2.6 13.7 -3.1 13.7 -1.1 0 0.6 -1.8 8.8 -4.1 18 l-4.1 16.9 -3.7 -3.6 c-2 -2 -4.4 -3.6 -5.2 -3.6 -0.9 0 -4.4 2.5 -7.9 5.5 -7.1 6.2 -9.8 6.8 -13.5 3z"/>
 </g>
</svg>